<svg viewBox="0 0 290 80" fill="none" xmlns="http://www.w3.org/2000/svg">
<g clip-path="url(#clip0_2219_9809)">
<path d="M92 68.4899V41.1132H97.8512V43.8171C99.6171 41.7194 102.377 40.5613 105.634 40.5613C109.553 40.5613 112.699 42.1613 114.521 45.2527C116.619 42.3271 120.15 40.5613 124.236 40.5613C130.969 40.5613 135.66 45.3085 135.66 52.7597V68.4899H129.533V53.3116C129.533 48.9519 127.16 46.3566 123.242 46.3566C119.324 46.3566 116.895 49.0605 116.895 53.3116V68.4899H110.767V53.3116C110.767 48.9519 108.394 46.3566 104.53 46.3566C100.667 46.3566 98.1271 49.0605 98.1271 53.3116V68.4899H92Z" fill="currentColor"/>
<path d="M139.412 54.8031C139.412 46.8 145.374 40.5628 153.211 40.5628C157.075 40.5628 160.33 42.1085 162.374 44.7581V41.1147H168.225V68.4914H162.374V64.848C160.386 67.4976 157.075 69.0434 153.211 69.0434C145.374 69.0434 139.412 62.8062 139.412 54.8031ZM162.152 54.8031C162.152 49.8914 158.674 46.3039 153.873 46.3039C149.071 46.3039 145.538 49.8914 145.538 54.8031C145.538 59.7147 149.07 63.248 153.873 63.248C158.676 63.248 162.152 59.7163 162.152 54.8031Z" fill="currentColor"/>
<path d="M174.845 33.3318C174.845 31.2899 176.335 29.8 178.377 29.8C180.419 29.8 181.908 31.2899 181.908 33.3318C181.908 35.3736 180.419 36.8093 178.377 36.8093C176.335 36.8093 174.845 35.3194 174.845 33.3318ZM175.287 68.4899V41.1132H181.414V68.4899H175.287Z" fill="currentColor"/>
<path d="M188.422 68.4899V30.4062H194.549V68.4899H188.422Z" fill="currentColor"/>
<path d="M200.254 72.4093L205.774 69.8155C206.988 72.6853 209.417 74.3969 213.943 74.3969C218.91 74.3969 222.166 71.8574 222.166 66.614V64.3504C220.124 66.8341 216.922 68.324 213.169 68.324C205.222 68.324 199.425 62.2527 199.425 54.4155C199.425 46.5783 205.606 40.5613 213.223 40.5613C216.867 40.5613 220.122 41.8853 222.164 44.4806V41.1132H228.07V66.5023C228.07 75.6093 221.446 79.8589 213.885 79.8589C207.318 79.8589 202.626 77.1551 200.253 72.4078L200.254 72.4093ZM221.89 54.4155C221.89 49.6682 218.468 46.1923 213.721 46.1923C208.974 46.1923 205.552 49.6698 205.552 54.4155C205.552 59.1613 208.974 62.6388 213.721 62.6388C218.468 62.6388 221.89 59.1613 221.89 54.4155Z" fill="currentColor"/>
<path d="M233.535 56.6791V41.1148H239.662V56.1272C239.662 60.5985 242.036 63.2466 245.953 63.2466C249.871 63.2466 252.521 60.4869 252.521 56.1272V41.1148H258.648V68.4915H252.687V65.8419C250.921 67.8838 248.215 69.0435 244.904 69.0435C238.281 69.0435 233.533 64.2419 233.533 56.6807L233.535 56.6791Z" fill="currentColor"/>
<path d="M264.444 68.4899V41.1132H270.295V43.9287C272.061 41.831 274.876 40.5613 278.354 40.5613C285.087 40.5613 289.89 45.3628 289.89 52.9256V68.4899H283.763V53.4775C283.763 49.0062 281.335 46.3582 277.36 46.3582C273.385 46.3582 270.571 49.1178 270.571 53.4775V68.4899H264.444Z" fill="currentColor"/>
<path d="M154.932 8.16625C156.07 7.38603 157.411 6.95905 158.79 6.93602C163.376 6.93602 166.565 10.0677 166.565 14.7091V23.5527H162.376V15.1038C162.376 12.5297 160.811 11.0199 158.686 11.0199C156.393 11.0199 154.993 12.6495 154.993 15.1038V23.5481H150.787V2.40672L154.934 0V8.16625H154.932Z" fill="currentColor"/>
<path d="M99.0111 13.4961C99.2922 13.5637 99.5886 13.6328 99.8927 13.7096C102.969 14.4914 105.319 15.5542 105.321 18.6321C105.321 21.8206 102.189 24 98.2724 24C95.0286 23.9954 92.5666 23.103 91 20.5289L94.6938 18.4048C95.4202 19.8593 96.6489 20.5873 98.3845 20.5842C100.013 20.5842 101.014 19.8577 101.014 18.7949C101.014 17.7321 99.6178 17.3988 97.2095 16.8935C93.9089 16.1655 91.7848 14.8247 91.7848 12.0278C91.7848 9.00217 94.8612 6.93642 98.2724 6.93642C101.181 6.93642 103.193 7.72125 104.983 9.96209L101.459 11.9772C100.79 10.8145 99.7806 10.2432 98.3277 10.2432C96.8747 10.2432 95.9793 10.9143 95.9793 11.8097C95.9793 12.7743 97.231 13.0722 99.0111 13.4977V13.4961Z" fill="currentColor"/>
<path d="M107.556 23.5531L111.696 23.5485V6.93642L107.556 9.35849V23.5531Z" fill="currentColor"/>
<path d="M122.492 6.93642C117.904 6.93642 114.605 10.3507 114.605 14.8262V23.5546L118.806 23.55V15.1057C118.806 12.6514 120.205 11.0218 122.499 11.0218C124.624 11.0218 126.19 12.5316 126.19 15.1057V23.55H130.38V14.8262C130.38 10.5734 127.147 6.93642 122.493 6.93642H122.492Z" fill="currentColor"/>
<path d="M136.854 15.4385C136.854 18.0126 138.588 19.9693 141.162 19.9693C142.841 19.9693 144.294 19.1292 144.965 17.7315L148.544 19.8034C147.806 21.092 146.739 22.1594 145.452 22.8951C144.163 23.6308 142.703 24.0102 141.219 23.9917C136.252 23.9964 132.609 20.4162 132.609 15.44C132.609 10.4638 136.187 6.93738 141.219 6.93738C144.349 6.93738 147.146 8.56541 148.487 11.0766L144.908 13.2038C144.556 12.5157 144.019 11.9428 143.357 11.5465C142.693 11.1503 141.933 10.9491 141.162 10.9644C138.7 10.9644 136.854 12.809 136.854 15.4385Z" fill="currentColor"/>
<path d="M0 15.3998C0 7.44751 6.44769 0.999817 14.4 0.999817H57.6C65.5523 0.999817 72 7.44751 72 15.3998V58.5998C72 66.5521 65.5523 72.9998 57.6 72.9998H14.4C6.44769 72.9998 0 66.5521 0 58.5998V15.3998Z" fill="#F04126"/>
<path d="M62.082 32.4584C60.84 30.6929 59.1106 29.3691 57.0841 28.6349C55.7808 28.1475 54.4146 27.907 53.0232 27.9211C50.6005 27.9369 48.0316 28.6962 45.5995 30.119L23.9808 42.7749C20.6164 44.7432 18.1151 44.4791 16.6011 43.9068C15.4896 43.5106 14.5448 42.7921 13.864 41.8316C13.1817 40.8694 12.817 39.739 12.8123 38.5615C12.806 37.3824 13.155 36.2473 13.8263 35.2788C14.496 34.3088 15.4346 33.5809 16.5477 33.1674C18.0475 32.581 20.5441 32.287 23.9305 34.2129L26.3658 35.6058C26.2243 36.0948 26.119 36.5979 26.0529 37.101L25.9272 38.0537L44.3701 27.4071L44.4078 27.3835C44.9015 27.0345 45.2426 26.5156 45.37 25.9261C45.4973 25.335 45.3999 24.7218 45.0933 24.2014C44.7883 23.681 44.3009 23.2959 43.7208 23.1182C43.1422 22.9406 42.5244 22.9862 41.9788 23.2471L41.9616 23.255L35.9921 26.7216L29.911 23.244L29.8764 23.2267C29.3246 22.9689 28.702 22.9296 28.1235 23.1151C27.5449 23.3006 27.0607 23.6936 26.7604 24.2234C26.4601 24.7533 26.3721 25.3711 26.5136 25.9622C26.6535 26.5534 27.0088 27.0675 27.5135 27.4071L31.2237 29.509L30.7144 29.8093L30.7034 29.8156C29.9817 30.2731 29.3214 30.8202 28.7366 31.4412L26.3013 30.0373C22.3757 27.8017 18.2865 27.3222 14.79 28.6884C13.3326 29.2512 11.9916 30.1457 10.9131 31.2777C9.83459 32.4081 9.00292 33.79 8.50927 35.2773C7.67288 37.8839 7.87097 40.6745 9.0721 43.1349C10.2732 45.5953 12.35 47.4709 14.9174 48.4142C16.2223 48.9015 17.5916 49.1421 18.9798 49.1279C21.4009 49.1122 23.9683 48.3513 26.4035 46.9269L26.4413 46.9033L48.0112 34.2726C51.374 32.3059 53.8769 32.57 55.394 33.1407C56.504 33.5353 57.4504 34.2506 58.1327 35.2112C58.8135 36.1734 59.1735 37.3053 59.1766 38.4844C59.1782 39.1054 59.0839 39.7217 58.8984 40.305C58.6248 41.1131 58.1689 41.8661 57.5762 42.4793C56.9851 43.094 56.2509 43.5798 55.4506 43.8848C53.9508 44.4696 51.4511 44.7621 48.0647 42.8377L45.6294 41.4448C45.785 40.9103 45.8951 40.3632 45.9611 39.8129L46.0743 38.8681L31.7095 47.2791V52.8382L41.284 47.2476L41.2997 47.2382C42.0182 46.7807 42.6785 46.2336 43.2617 45.6126L45.6986 47.0165C49.6399 49.2443 53.7291 49.7222 57.2052 48.3654C59.2269 47.6061 60.939 46.2635 62.1606 44.4822C63.3806 42.7025 64.0157 40.6194 63.9969 38.4624H64C63.9874 36.3007 63.3271 34.2255 62.0851 32.46L62.082 32.4584Z" fill="white"/>
</g>
<defs>
<clipPath id="clip0_2219_9809">
<rect width="290" height="80" fill="white"/>
</clipPath>
</defs>
</svg>
