<svg width="686" height="76" viewBox="0 0 686 76" fill="none" xmlns="http://www.w3.org/2000/svg">
<path d="M101.034 32.719H92.4498C81.1706 32.719 72.0274 23.4519 72.0274 12.0197V3.31913C72.0274 2.32767 71.2288 1.51831 70.2506 1.51831H63.503C62.5248 1.51831 61.7263 2.32767 61.7263 3.31913V12.0197C61.7263 23.4519 52.5831 32.719 41.3038 32.719H32.7196C31.7414 32.719 30.9429 33.5283 30.9429 34.5198V41.3589C30.9429 42.3503 31.7414 43.1597 32.7196 43.1597H41.3038C52.5831 43.1597 61.7263 52.4268 61.7263 63.8589V72.5595C61.7263 73.551 62.5248 74.3603 63.503 74.3603H70.2506C71.2288 74.3603 72.0274 73.551 72.0274 72.5595V63.8589C72.0274 52.4268 81.1706 43.1597 92.4498 43.1597H101.034C102.012 43.1597 102.811 42.3503 102.811 41.3589V34.5198C102.811 33.5283 102.012 32.719 101.034 32.719Z" fill="white"/>
<path d="M39.3679 63.9394H32.6403C31.659 63.9394 30.8635 64.7456 30.8635 65.7402V72.559C30.8635 73.5536 31.659 74.3598 32.6403 74.3598H39.3679C40.3492 74.3598 41.1446 73.5536 41.1446 72.559V65.7402C41.1446 64.7456 40.3492 63.9394 39.3679 63.9394Z" fill="white"/>
<path d="M100.935 63.9394H94.2069C93.2256 63.9394 92.4302 64.7456 92.4302 65.7402V72.559C92.4302 73.5536 93.2256 74.3598 94.2069 74.3598H100.935C101.916 74.3598 102.711 73.5536 102.711 72.559V65.7402C102.711 64.7456 101.916 63.9394 100.935 63.9394Z" fill="white"/>
<path d="M8.50437 32.7192H1.77673C0.795471 32.7192 0 33.5255 0 34.52V41.3388C0 42.3334 0.795471 43.1397 1.77673 43.1397H8.50437C9.48563 43.1397 10.2811 42.3334 10.2811 41.3388V34.52C10.2811 33.5255 9.48563 32.7192 8.50437 32.7192Z" fill="white"/>
<path d="M131.638 32.7192H124.911C123.929 32.7192 123.134 33.5255 123.134 34.52V41.3388C123.134 42.3334 123.929 43.1397 124.911 43.1397H131.638C132.619 43.1397 133.415 42.3334 133.415 41.3388V34.52C133.415 33.5255 132.619 32.7192 131.638 32.7192Z" fill="white"/>
<path d="M39.3679 1.5589H32.6403C31.659 1.5589 30.8635 2.36515 30.8635 3.35972V10.1785C30.8635 11.1731 31.659 11.9794 32.6403 11.9794H39.3679C40.3492 11.9794 41.1446 11.1731 41.1446 10.1785V3.35972C41.1446 2.36515 40.3492 1.5589 39.3679 1.5589Z" fill="white"/>
<path d="M100.935 1.51831H94.2069C93.2256 1.51831 92.4302 2.32456 92.4302 3.31913V10.138C92.4302 11.1325 93.2256 11.9388 94.2069 11.9388H100.935C101.916 11.9388 102.711 11.1325 102.711 10.138V3.31913C102.711 2.32456 101.916 1.51831 100.935 1.51831Z" fill="white"/>
<path d="M406.733 23.1884C416.774 23.1884 429.112 28.8741 430.31 43.5234H421.386C419.989 34.2563 413.96 30.9177 406.733 30.9177C395.494 30.9177 389.984 39.2541 389.984 49.4317C389.984 59.6094 395.494 68.0469 406.733 68.0469C413.96 68.0469 419.989 64.6881 421.386 55.4412H430.31C429.112 70.0905 416.754 75.7763 406.733 75.7763C390.583 75.7763 381.14 64.2834 381.14 49.4317C381.14 34.58 390.583 23.1884 406.733 23.1884Z" fill="white"/>
<path d="M631.659 49.4314C631.659 34.0739 640.803 23.1881 655.036 23.1881C666.176 23.1881 673.203 28.8738 676.517 36.7245V0H685.361V74.7643H676.517V62.2597C673.103 70.2926 665.976 75.7962 655.036 75.7962C640.783 75.7962 631.659 64.8092 631.659 49.4517V49.4314ZM657.951 68.0466C667.693 68.0466 676.218 61.8348 676.218 49.4314C676.218 37.028 667.693 30.9174 657.951 30.9174C648.209 30.9174 640.583 36.8257 640.583 49.4314C640.583 62.0371 648.309 68.0466 657.951 68.0466Z" fill="white"/>
<path d="M270.823 31.9493V24.1998H255.172V8.63989L246.228 11.3917V24.1998H235.209V31.9493H270.823Z" fill="white"/>
<path d="M255.171 67.1355V36.7037H246.228V67.6414C246.228 72.5177 248.543 74.7637 253.255 74.7637H272.819V67.0344L255.151 67.1355H255.171Z" fill="white"/>
<path d="M483.392 31.9489V24.1993H453.906V8.6394L444.963 11.3912V24.1993H433.923V31.9489H483.392Z" fill="white"/>
<path d="M453.906 67.1354V36.7036H444.963V67.6412C444.963 72.5176 447.279 74.7636 451.99 74.7636H471.554V67.0342L453.886 67.1354H453.906Z" fill="white"/>
<path d="M344.607 68.0461C336.083 68.0461 332.27 63.9791 332.27 53.5991V24.1993H323.227V54.5097C323.227 68.1473 330.054 75.7755 341.593 75.7755C349.059 75.7755 354.649 73.0844 358.342 68.4913V60.8226C355.288 65.4157 350.577 68.0461 344.607 68.0461Z" fill="white"/>
<path d="M371.078 24.1992H362.254V74.7637H371.078V24.1992Z" fill="white"/>
<path d="M500.48 68.0463C491.956 68.0463 488.143 63.9792 488.143 53.5993V24.1994H479.1V54.5098C479.1 68.1474 485.927 75.7756 497.466 75.7756C504.932 75.7756 510.522 73.0845 514.215 68.4914V60.8228C511.161 65.4158 506.449 68.0463 500.48 68.0463Z" fill="white"/>
<path d="M526.972 24.1992H518.148V74.7637H526.972V24.1992Z" fill="white"/>
<path d="M546.536 36.7036H537.613V74.7636H546.536V36.7036Z" fill="white"/>
<path d="M544.64 24.1993C539.928 24.1993 537.613 26.4452 537.613 31.2204V31.9286H572.848V24.1993H544.64Z" fill="white"/>
<path d="M290.566 36.7037H281.643V74.7637H290.566V36.7037Z" fill="white"/>
<path d="M288.67 24.1997C283.958 24.1997 281.643 26.4457 281.643 31.2209V31.9291H316.878V24.1997H288.67Z" fill="white"/>
<path d="M583.987 44.7577C584.686 35.612 590.915 30.3107 599.14 30.3107C608.063 30.3107 614.192 35.5917 614.791 44.7577H583.488V51.1718H623.535V47.9142C623.535 32.2531 613.892 23.1884 599.14 23.1884C584.387 23.1884 575.263 32.4352 575.263 48.8247C575.263 63.7776 583.488 75.7763 599.758 75.7763C615.11 75.7763 621.738 66.4282 623.734 57.0599H614.911C613.214 64.0811 608.183 68.5528 599.659 68.5528C589.318 68.5528 584.207 61.0258 583.908 51.1516C583.908 51.1516 583.688 49.5127 584.007 44.7375L583.987 44.7577Z" fill="white"/>
<path d="M213.927 36.5224L194.363 31.5449C186.637 29.5013 183.623 25.6366 183.623 20.5579C183.623 13.2332 189.133 9.67204 199.474 9.67204C211.791 9.67204 218.439 14.5282 219.417 24.2202H228.78C227.702 10.2791 217.66 1.94269 199.474 1.94269C183.224 1.94269 174.38 8.55917 174.38 20.9626C174.38 29.5013 178.991 36.0166 190.131 38.9707L209.895 44.1506C218.119 46.2954 221.733 50.5647 221.733 56.1493C221.733 64.081 216.303 68.0468 204.065 68.0468C188.414 68.0468 180.289 61.5315 180.289 47.8129H171.066C171.066 65.8211 182.405 75.8976 203.886 75.8976C222.751 75.8976 230.976 68.4717 230.976 55.6435C230.976 46.1942 225.366 39.4766 213.907 36.5224H213.927Z" fill="white"/>
<path d="M323.226 54.5916V24.2205H332.27V53.6811C332.27 64.0813 336.083 68.1483 344.647 68.1483C355.607 68.1483 362.334 59.387 362.334 45.7292V24.2205H371.178V74.866H362.334V61.0057C359.619 70.1717 352.572 75.8777 341.612 75.8777C330.054 75.8777 323.206 68.2292 323.206 54.5714L323.226 54.5916Z" fill="white"/>
<path d="M478.801 54.5916V24.2205H487.844V53.6811C487.844 64.0813 491.657 68.1483 500.222 68.1483C511.181 68.1483 517.909 59.387 517.909 45.7292V24.2205H526.753V74.866H517.909V61.0057C515.194 70.1717 508.147 75.8777 497.187 75.8777C485.628 75.8777 478.781 68.2292 478.781 54.5714L478.801 54.5916Z" fill="white"/>
</svg>
