<?xml version="1.0" encoding="UTF-8"?>
<svg id="Layer_1" data-name="Layer 1" xmlns="http://www.w3.org/2000/svg" viewBox="0 0 288 259.2">
  <defs>
    <style>
      .cls-1 {
        fill: #055a79;
        stroke-width: 0px;
      }
    </style>
  </defs>
  <path class="cls-1" d="m3.54,87.24h14.1c1.95,0,3.54-1.58,3.54-3.54v-31.76h31.76c1.95,0,3.54-1.58,3.54-3.54v-14.1c0-1.95-1.58-3.54-3.54-3.54H14.21C6.36,30.77,0,37.13,0,44.98v38.72c0,1.95,1.58,3.54,3.54,3.54Z"/>
  <path class="cls-1" d="m183.44,30.77h-38.72c-1.95,0-3.54,1.58-3.54,3.54v14.1c0,1.95,1.58,3.54,3.54,3.54h31.76v31.76c0,1.95,1.58,3.54,3.54,3.54h14.1c1.95,0,3.54-1.58,3.54-3.54v-38.72c0-7.85-6.36-14.21-14.21-14.21Z"/>
  <path class="cls-1" d="m194.1,171.96h-14.1c-1.95,0-3.54,1.58-3.54,3.54v31.76h-31.76c-1.95,0-3.54,1.58-3.54,3.54v14.1c0,1.95,1.58,3.54,3.54,3.54h38.72c7.85,0,14.21-6.36,14.21-14.21v-38.72c0-1.95-1.58-3.54-3.54-3.54Z"/>
  <path class="cls-1" d="m52.94,207.25h-31.76v-31.75c0-1.95-1.58-3.54-3.54-3.54H3.54c-1.95,0-3.54,1.58-3.54,3.54v38.72c0,7.85,6.36,14.21,14.21,14.21h38.72c1.95,0,3.54-1.58,3.54-3.54v-14.1c0-1.95-1.58-3.54-3.54-3.54Z"/>
  <rect class="cls-1" x="42.39" y="92.98" width="21.18" height="21.18" rx="3.65" ry="3.65"/>
  <rect class="cls-1" x="133.99" y="92.98" width="21.18" height="21.18" rx="3.65" ry="3.65"/>
  <rect class="cls-1" x="42.39" y="145.5" width="21.18" height="21.18" rx="3.65" ry="3.65"/>
  <rect class="cls-1" x="133.99" y="145.5" width="21.18" height="21.18" rx="3.65" ry="3.65"/>
  <rect class="cls-1" x="88.12" y="171.95" width="21.18" height="21.18" rx="3.65" ry="3.65"/>
  <path class="cls-1" d="m91.77,66.06h13.89c2.01,0,3.65,1.63,3.65,3.65v13.89c0,2.01-1.63,3.65-3.65,3.65h-13.89c-2.01,0-3.65-1.63-3.65-3.65v-13.89c0-2.01,1.63-3.65,3.65-3.65Z"/>
  <rect class="cls-1" x="88.24" y="118.95" width="21.18" height="21.18" rx="3.65" ry="3.65"/>
</svg>