<?xml version="1.0" encoding="UTF-8"?>
<svg xmlns="http://www.w3.org/2000/svg" viewBox="0 0 288 258.91">
  <defs>
    <style>
      .cls-1 {
        fill: #055a79;
        stroke-width: 0px;
      }

      .cls-2 {
        fill: none;
        stroke: #bcbec0;
        stroke-miterlimit: 10;
        stroke-width: .5px;
      }
    </style>
  </defs>
  <g id="Layer_2" data-name="Layer 2">
    <g>
      <rect class="cls-2" x="86.05" y="2.39" width="254.12" height="254.12"/>
      <line class="cls-2" x1="93.11" y1="2.39" x2="93.11" y2="256.51"/>
      <line class="cls-2" x1="86.05" y1="2.39" x2="86.05" y2="256.51"/>
      <line class="cls-2" x1="100.17" y1="2.39" x2="100.17" y2="256.51"/>
      <line class="cls-2" x1="107.23" y1="2.39" x2="107.23" y2="256.51"/>
      <line class="cls-2" x1="114.29" y1="2.39" x2="114.29" y2="256.51"/>
      <line class="cls-2" x1="121.35" y1="2.39" x2="121.35" y2="256.51"/>
      <line class="cls-2" x1="128.41" y1="2.39" x2="128.41" y2="256.51"/>
      <line class="cls-2" x1="135.47" y1="2.39" x2="135.47" y2="256.51"/>
      <line class="cls-2" x1="142.52" y1="2.39" x2="142.52" y2="256.51"/>
      <line class="cls-2" x1="149.58" y1="2.39" x2="149.58" y2="256.51"/>
      <line class="cls-2" x1="156.64" y1="2.39" x2="156.64" y2="256.51"/>
      <line class="cls-2" x1="163.7" y1="2.39" x2="163.7" y2="256.51"/>
      <line class="cls-2" x1="177.82" y1="2.39" x2="177.82" y2="256.51"/>
      <line class="cls-2" x1="170.76" y1="2.39" x2="170.76" y2="256.51"/>
      <line class="cls-2" x1="191.94" y1="2.39" x2="191.94" y2="256.51"/>
      <line class="cls-2" x1="184.88" y1="2.39" x2="184.88" y2="256.51"/>
      <line class="cls-2" x1="206.05" y1="2.39" x2="206.05" y2="256.51"/>
      <line class="cls-2" x1="198.99" y1="2.39" x2="198.99" y2="256.51"/>
      <line class="cls-2" x1="220.17" y1="2.39" x2="220.17" y2="256.51"/>
      <line class="cls-2" x1="213.11" y1="2.39" x2="213.11" y2="256.51"/>
      <line class="cls-2" x1="234.29" y1="2.39" x2="234.29" y2="256.51"/>
      <line class="cls-2" x1="227.23" y1="2.39" x2="227.23" y2="256.51"/>
      <line class="cls-2" x1="248.41" y1="2.39" x2="248.41" y2="256.51"/>
      <line class="cls-2" x1="241.35" y1="2.39" x2="241.35" y2="256.51"/>
      <line class="cls-2" x1="262.52" y1="2.39" x2="262.52" y2="256.51"/>
      <line class="cls-2" x1="255.47" y1="2.39" x2="255.47" y2="256.51"/>
      <line class="cls-2" x1="276.64" y1="2.39" x2="276.64" y2="256.51"/>
      <line class="cls-2" x1="269.58" y1="2.39" x2="269.58" y2="256.51"/>
      <line class="cls-2" x1="283.7" y1="2.39" x2="283.7" y2="256.51"/>
      <circle class="cls-2" cx="213.11" cy="129.45" r="127.06"/>
      <circle class="cls-2" cx="213.11" cy="129.45" r="105.88"/>
      <circle class="cls-2" cx="213.11" cy="129.45" r="35.29"/>
      <line class="cls-2" x1="86.05" y1="256.51" x2="340.17" y2="2.39"/>
      <line class="cls-2" x1="86.05" y1="2.39" x2="340.17" y2="256.51"/>
      <line class="cls-2" x1="340.17" y1="9.45" x2="86.05" y2="9.45"/>
      <line class="cls-2" x1="340.17" y1="2.39" x2="86.05" y2="2.39"/>
      <line class="cls-2" x1="340.17" y1="16.51" x2="86.05" y2="16.51"/>
      <line class="cls-2" x1="340.17" y1="23.57" x2="86.05" y2="23.57"/>
      <line class="cls-2" x1="340.17" y1="30.63" x2="86.05" y2="30.63"/>
      <line class="cls-2" x1="340.17" y1="37.69" x2="86.05" y2="37.69"/>
      <line class="cls-2" x1="340.17" y1="44.75" x2="86.05" y2="44.75"/>
      <line class="cls-2" x1="340.17" y1="51.81" x2="86.05" y2="51.81"/>
      <line class="cls-2" x1="340.17" y1="58.86" x2="86.05" y2="58.86"/>
      <line class="cls-2" x1="340.17" y1="65.92" x2="86.05" y2="65.92"/>
      <line class="cls-2" x1="340.17" y1="72.98" x2="86.05" y2="72.98"/>
      <line class="cls-2" x1="340.17" y1="80.04" x2="86.05" y2="80.04"/>
      <line class="cls-2" x1="340.17" y1="94.16" x2="86.05" y2="94.16"/>
      <line class="cls-2" x1="340.17" y1="87.1" x2="86.05" y2="87.1"/>
      <line class="cls-2" x1="340.17" y1="108.28" x2="86.05" y2="108.28"/>
      <line class="cls-2" x1="340.17" y1="101.22" x2="86.05" y2="101.22"/>
      <line class="cls-2" x1="340.17" y1="122.39" x2="86.05" y2="122.39"/>
      <line class="cls-2" x1="340.17" y1="115.34" x2="86.05" y2="115.33"/>
      <line class="cls-2" x1="340.17" y1="136.51" x2="86.05" y2="136.51"/>
      <line class="cls-2" x1="340.17" y1="129.45" x2="86.05" y2="129.45"/>
      <line class="cls-2" x1="340.17" y1="150.63" x2="86.05" y2="150.63"/>
      <line class="cls-2" x1="340.17" y1="143.57" x2="86.05" y2="143.57"/>
      <line class="cls-2" x1="340.17" y1="164.75" x2="86.05" y2="164.75"/>
      <line class="cls-2" x1="340.17" y1="157.69" x2="86.05" y2="157.69"/>
      <line class="cls-2" x1="340.17" y1="178.86" x2="86.05" y2="178.86"/>
      <line class="cls-2" x1="340.17" y1="171.81" x2="86.05" y2="171.81"/>
      <line class="cls-2" x1="340.17" y1="192.98" x2="86.05" y2="192.98"/>
      <line class="cls-2" x1="340.17" y1="185.92" x2="86.05" y2="185.92"/>
      <line class="cls-2" x1="340.17" y1="207.1" x2="86.05" y2="207.1"/>
      <line class="cls-2" x1="340.17" y1="200.04" x2="86.05" y2="200.04"/>
      <line class="cls-2" x1="340.17" y1="221.22" x2="86.05" y2="221.22"/>
      <line class="cls-2" x1="340.17" y1="214.16" x2="86.05" y2="214.16"/>
      <line class="cls-2" x1="340.17" y1="235.33" x2="86.05" y2="235.33"/>
      <line class="cls-2" x1="340.17" y1="228.28" x2="86.05" y2="228.28"/>
      <line class="cls-2" x1="340.17" y1="249.45" x2="86.05" y2="249.45"/>
      <line class="cls-2" x1="340.17" y1="256.51" x2="86.05" y2="256.51"/>
      <line class="cls-2" x1="340.17" y1="242.39" x2="86.05" y2="242.39"/>
    </g>
  </g>
  <g id="Layer_1" data-name="Layer 1">
    <g>
      <path class="cls-1" d="m.65,57.72h14.1c1.95,0,3.54-1.58,3.54-3.54v-31.76h31.76c1.95,0,3.54-1.58,3.54-3.54V4.79c0-1.95-1.58-3.54-3.54-3.54H11.32C3.47,1.25-2.89,7.61-2.89,15.46v38.72c0,1.95,1.58,3.54,3.54,3.54Z"/>
      <path class="cls-1" d="m240.55,1.25h-38.72c-1.95,0-3.54,1.58-3.54,3.54v14.1c0,1.95,1.58,3.54,3.54,3.54h31.76v31.76c0,1.95,1.58,3.54,3.54,3.54h14.1c1.95,0,3.54-1.58,3.54-3.54V15.46c0-7.85-6.36-14.21-14.21-14.21Z"/>
      <path class="cls-1" d="m251.21,202.43h-14.1c-1.95,0-3.54,1.58-3.54,3.54v31.76h-31.76c-1.95,0-3.54,1.58-3.54,3.54v14.1c0,1.95,1.58,3.54,3.54,3.54h38.72c7.85,0,14.21-6.36,14.21-14.21v-38.72c0-1.95-1.58-3.54-3.54-3.54Z"/>
      <path class="cls-1" d="m50.05,237.73h-31.76v-31.76c0-1.95-1.58-3.54-3.54-3.54H.66c-1.95,0-3.54,1.58-3.54,3.54v38.72c0,7.85,6.36,14.21,14.21,14.21h38.72c1.95,0,3.54-1.58,3.54-3.54v-14.1c0-1.95-1.58-3.54-3.54-3.54Z"/>
      <path class="cls-1" d="m207.53,214.79l13.2-5.71c1.72-.74,2.51-2.74,1.77-4.47l-40.01-92.5c-.74-1.72-2.74-2.51-4.47-1.77h-18.43c-1.72-.74-3.72.05-4.47,1.77l-13.16,30.43c-13.18-.45-25.28-3.94-35.06-9.54,12.48-13.83,20.37-31.53,21.41-50.92h13.25c1.88,0,3.4-1.52,3.4-3.4v-14.38c0-1.88-1.52-3.4-3.4-3.4h-37.71v-22.65c0-1.88-1.52-3.4-3.4-3.4h-14.38c-1.88,0-3.4,1.52-3.4,3.4v22.65h-41.89c-1.88,0-3.4,1.52-3.4,3.4v14.38c0,1.88,1.52,3.4,3.4,3.4h67.48c-1.03,14.51-7.16,27.73-16.73,38.09-4.96-6.16-8.01-13.25-8.53-20.82-.09-1.3-1.16-2.31-2.47-2.31h-15.06c-1.42,0-2.55,1.19-2.49,2.61.58,11.94,5.09,23.25,13.01,33.03-10,5.9-21.7,9.47-34.25,9.87-1.33.04-2.37,1.15-2.37,2.48v15.04c0,1.41,1.17,2.52,2.58,2.48,18.35-.5,35.32-6.32,49.28-15.88,12.02,8.31,26.65,13.57,42.33,15.29l-18.44,42.64c-.74,1.72.05,3.72,1.77,4.47l13.2,5.71c1.72.74,3.72-.05,4.47-1.77l12.2-28.22h44.1l12.2,28.22c.74,1.72,2.74,2.51,4.47,1.77Zm-51.61-51.16l12.89-29.8,12.89,29.8h-25.78Z"/>
    </g>
  </g>
</svg>