<?xml version="1.0" encoding="UTF-8"?>
<svg id="Layer_1" data-name="Layer 1" xmlns="http://www.w3.org/2000/svg" viewBox="0 0 288 259.2">
  <defs>
    <style>
      .cls-1 {
        fill: #055a79;
        stroke-width: 0px;
      }
    </style>
  </defs>
  <rect class="cls-1" y="87.25" width="21.18" height="84.71" rx="3.12" ry="3.12"/>
  <path class="cls-1" d="m130.45,23.72h-13.74c-2.05,0-3.72,1.66-3.72,3.72v7.72l-70.62,40.77c-4.38,2.53-7.08,7.2-7.08,12.26v82.83c0,5.06,2.7,9.73,7.08,12.26l70.62,40.77v7.72c0,2.05,1.66,3.72,3.72,3.72h13.74c2.05,0,3.72-1.66,3.72-3.72V27.44c0-2.05-1.66-3.72-3.72-3.72Zm-17.46,175.88l-56.47-32.6v-74.78l56.47-32.6v139.99Z"/>
  <path class="cls-1" d="m173.08,73.13h13.89c2.01,0,3.65,1.63,3.65,3.65v13.89c0,2.01-1.63,3.65-3.65,3.65h-13.89c-2.01,0-3.65-1.63-3.65-3.65v-13.89c0-2.01,1.63-3.65,3.65-3.65Z" transform="translate(-6.47 151.82) rotate(-45)"/>
  <rect class="cls-1" x="169.44" y="164.89" width="21.18" height="21.18" rx="3.65" ry="3.65" transform="translate(-71.36 178.69) rotate(-45)"/>
  <rect class="cls-1" x="190.61" y="119.01" width="21.18" height="21.18" rx="3.65" ry="3.65"/>
</svg>