<?xml version="1.0" encoding="UTF-8"?>
<svg id="Layer_1" data-name="Layer 1" xmlns="http://www.w3.org/2000/svg" viewBox="0 0 288 263.52">
  <defs>
    <style>
      .cls-1 {
        fill: #055a79;
        stroke-width: 0px;
      }
    </style>
  </defs>
  <polygon class="cls-1" points="197.28 54.11 197.28 32.94 197.28 32.94 176.1 32.94 122.94 32.94 122.94 54.11 176.1 54.11 176.1 209.41 122.94 209.41 122.94 230.58 197.28 230.58 197.28 209.41 197.28 209.41 197.28 54.11 197.28 54.11"/>
  <polygon class="cls-1" points="20.44 54.11 75.62 54.11 75.62 32.94 20.44 32.94 1.29 32.94 0 32.94 0 230.53 1.29 230.53 1.29 230.58 75.62 230.58 75.62 209.41 20.44 209.41 20.44 54.11"/>
  <polygon class="cls-1" points="154.93 75.29 41.98 75.29 41.98 75.29 41.98 106.98 63.16 106.98 63.16 96.47 133.75 96.47 133.75 106.98 154.93 106.98 154.93 96.47 154.93 96.47 154.93 75.29"/>
  <polygon class="cls-1" points="154.93 188.23 154.93 167.05 154.93 167.05 154.93 156.54 133.75 156.54 133.75 167.05 63.16 167.05 63.16 156.54 41.98 156.54 41.98 188.23 41.98 188.23 154.93 188.23"/>
  <path class="cls-1" d="m91.51,32.94h13.89c2.01,0,3.65,1.63,3.65,3.65v13.89c0,2.01-1.63,3.65-3.65,3.65h-13.89c-2.01,0-3.65-1.63-3.65-3.65v-13.89c0-2.01,1.63-3.65,3.65-3.65Z"/>
  <path class="cls-1" d="m91.51,209.41h13.89c2.01,0,3.65,1.63,3.65,3.65v13.89c0,2.01-1.63,3.65-3.65,3.65h-13.89c-2.01,0-3.65-1.63-3.65-3.65v-13.89c0-2.01,1.63-3.65,3.65-3.65Z"/>
  <rect class="cls-1" x="41.99" y="121.12" width="21.18" height="21.18" rx="3.65" ry="3.65"/>
  <path class="cls-1" d="m137.4,121.12h13.89c2.01,0,3.65,1.63,3.65,3.65v13.89c0,2.01-1.63,3.65-3.65,3.65h-13.89c-2.01,0-3.65-1.63-3.65-3.65v-13.89c0-2.01,1.63-3.65,3.65-3.65Z"/>
</svg>