<?xml version="1.0" encoding="UTF-8"?>
<svg xmlns="http://www.w3.org/2000/svg" viewBox="0 0 288 259.2">
  <defs>
    <style>
      .cls-1 {
        fill: #055a79;
        stroke-width: 0px;
      }

      .cls-2 {
        fill: none;
        stroke: #bcbec0;
        stroke-miterlimit: 10;
        stroke-width: .5px;
      }
    </style>
  </defs>
  <g id="Layer_2" data-name="Layer 2">
    <g>
      <rect class="cls-2" x="16.94" y="2.54" width="254.12" height="254.12"/>
      <line class="cls-2" x1="24" y1="2.54" x2="24" y2="256.66"/>
      <line class="cls-2" x1="16.94" y1="2.54" x2="16.94" y2="256.66"/>
      <line class="cls-2" x1="31.06" y1="2.54" x2="31.06" y2="256.66"/>
      <line class="cls-2" x1="38.12" y1="2.54" x2="38.12" y2="256.66"/>
      <line class="cls-2" x1="45.18" y1="2.54" x2="45.18" y2="256.66"/>
      <line class="cls-2" x1="52.24" y1="2.54" x2="52.24" y2="256.66"/>
      <line class="cls-2" x1="59.29" y1="2.54" x2="59.29" y2="256.66"/>
      <line class="cls-2" x1="66.35" y1="2.54" x2="66.35" y2="256.66"/>
      <line class="cls-2" x1="73.41" y1="2.54" x2="73.41" y2="256.66"/>
      <line class="cls-2" x1="80.47" y1="2.54" x2="80.47" y2="256.66"/>
      <line class="cls-2" x1="87.53" y1="2.54" x2="87.53" y2="256.66"/>
      <line class="cls-2" x1="94.59" y1="2.54" x2="94.59" y2="256.66"/>
      <line class="cls-2" x1="108.71" y1="2.54" x2="108.71" y2="256.66"/>
      <line class="cls-2" x1="101.65" y1="2.54" x2="101.65" y2="256.66"/>
      <line class="cls-2" x1="122.82" y1="2.54" x2="122.82" y2="256.66"/>
      <line class="cls-2" x1="115.76" y1="2.54" x2="115.76" y2="256.66"/>
      <line class="cls-2" x1="136.94" y1="2.54" x2="136.94" y2="256.66"/>
      <line class="cls-2" x1="129.88" y1="2.54" x2="129.88" y2="256.66"/>
      <line class="cls-2" x1="151.06" y1="2.54" x2="151.06" y2="256.66"/>
      <line class="cls-2" x1="144" y1="2.54" x2="144" y2="256.66"/>
      <line class="cls-2" x1="165.18" y1="2.54" x2="165.18" y2="256.66"/>
      <line class="cls-2" x1="158.12" y1="2.54" x2="158.12" y2="256.66"/>
      <line class="cls-2" x1="179.29" y1="2.54" x2="179.29" y2="256.66"/>
      <line class="cls-2" x1="172.24" y1="2.54" x2="172.24" y2="256.66"/>
      <line class="cls-2" x1="193.41" y1="2.54" x2="193.41" y2="256.66"/>
      <line class="cls-2" x1="186.35" y1="2.54" x2="186.35" y2="256.66"/>
      <line class="cls-2" x1="207.53" y1="2.54" x2="207.53" y2="256.66"/>
      <line class="cls-2" x1="200.47" y1="2.54" x2="200.47" y2="256.66"/>
      <line class="cls-2" x1="221.65" y1="2.54" x2="221.65" y2="256.66"/>
      <line class="cls-2" x1="214.59" y1="2.54" x2="214.59" y2="256.66"/>
      <line class="cls-2" x1="235.76" y1="2.54" x2="235.76" y2="256.66"/>
      <line class="cls-2" x1="228.71" y1="2.54" x2="228.71" y2="256.66"/>
      <line class="cls-2" x1="249.88" y1="2.54" x2="249.88" y2="256.66"/>
      <line class="cls-2" x1="242.82" y1="2.54" x2="242.82" y2="256.66"/>
      <line class="cls-2" x1="264" y1="2.54" x2="264" y2="256.66"/>
      <line class="cls-2" x1="271.06" y1="2.54" x2="271.06" y2="256.66"/>
      <line class="cls-2" x1="256.94" y1="2.54" x2="256.94" y2="256.66"/>
      <circle class="cls-2" cx="144" cy="129.6" r="127.06"/>
      <circle class="cls-2" cx="144" cy="129.6" r="105.88"/>
      <circle class="cls-2" cx="144" cy="129.6" r="35.29"/>
      <line class="cls-2" x1="16.94" y1="256.66" x2="271.06" y2="2.54"/>
      <line class="cls-2" x1="16.94" y1="2.54" x2="271.06" y2="256.66"/>
      <line class="cls-2" x1="271.06" y1="9.6" x2="16.94" y2="9.6"/>
      <line class="cls-2" x1="271.06" y1="2.54" x2="16.94" y2="2.54"/>
      <line class="cls-2" x1="271.06" y1="16.66" x2="16.94" y2="16.66"/>
      <line class="cls-2" x1="271.06" y1="23.72" x2="16.94" y2="23.72"/>
      <line class="cls-2" x1="271.06" y1="30.78" x2="16.94" y2="30.78"/>
      <line class="cls-2" x1="271.06" y1="37.84" x2="16.94" y2="37.84"/>
      <line class="cls-2" x1="271.06" y1="44.89" x2="16.94" y2="44.89"/>
      <line class="cls-2" x1="271.06" y1="51.95" x2="16.94" y2="51.95"/>
      <line class="cls-2" x1="271.06" y1="59.01" x2="16.94" y2="59.01"/>
      <line class="cls-2" x1="271.06" y1="66.07" x2="16.94" y2="66.07"/>
      <line class="cls-2" x1="271.06" y1="73.13" x2="16.94" y2="73.13"/>
      <line class="cls-2" x1="271.06" y1="80.19" x2="16.94" y2="80.19"/>
      <line class="cls-2" x1="271.06" y1="94.31" x2="16.94" y2="94.31"/>
      <line class="cls-2" x1="271.06" y1="87.25" x2="16.94" y2="87.25"/>
      <line class="cls-2" x1="271.06" y1="108.42" x2="16.94" y2="108.42"/>
      <line class="cls-2" x1="271.06" y1="101.36" x2="16.94" y2="101.36"/>
      <line class="cls-2" x1="271.06" y1="122.54" x2="16.94" y2="122.54"/>
      <line class="cls-2" x1="271.06" y1="115.48" x2="16.94" y2="115.48"/>
      <line class="cls-2" x1="271.06" y1="136.66" x2="16.94" y2="136.66"/>
      <line class="cls-2" x1="271.06" y1="129.6" x2="16.94" y2="129.6"/>
      <line class="cls-2" x1="271.06" y1="150.78" x2="16.94" y2="150.78"/>
      <line class="cls-2" x1="271.06" y1="143.72" x2="16.94" y2="143.72"/>
      <line class="cls-2" x1="271.06" y1="164.89" x2="16.94" y2="164.89"/>
      <line class="cls-2" x1="271.06" y1="157.84" x2="16.94" y2="157.84"/>
      <line class="cls-2" x1="271.06" y1="179.01" x2="16.94" y2="179.01"/>
      <line class="cls-2" x1="271.06" y1="171.95" x2="16.94" y2="171.95"/>
      <line class="cls-2" x1="271.06" y1="193.13" x2="16.94" y2="193.13"/>
      <line class="cls-2" x1="271.06" y1="186.07" x2="16.94" y2="186.07"/>
      <line class="cls-2" x1="271.06" y1="207.25" x2="16.94" y2="207.25"/>
      <line class="cls-2" x1="271.06" y1="200.19" x2="16.94" y2="200.19"/>
      <line class="cls-2" x1="271.06" y1="221.36" x2="16.94" y2="221.36"/>
      <line class="cls-2" x1="271.06" y1="214.31" x2="16.94" y2="214.31"/>
      <line class="cls-2" x1="271.06" y1="235.48" x2="16.94" y2="235.48"/>
      <line class="cls-2" x1="271.06" y1="228.42" x2="16.94" y2="228.42"/>
      <line class="cls-2" x1="271.06" y1="249.6" x2="16.94" y2="249.6"/>
      <line class="cls-2" x1="271.06" y1="256.66" x2="16.94" y2="256.66"/>
      <line class="cls-2" x1="271.06" y1="242.54" x2="16.94" y2="242.54"/>
    </g>
  </g>
  <g id="Layer_1" data-name="Layer 1">
    <g>
      <rect class="cls-1" x="67.95" y="111.95" width="21.18" height="21.18" rx="3.65" ry="3.65"/>
      <path class="cls-1" d="m89.13,154.42c0-2.01-1.63-3.65-3.65-3.65h-13.89c-2.01,0-3.65,1.63-3.65,3.65v77.97h21.18v-77.97Z"/>
      <path class="cls-1" d="m6.52,32.69h13.89c2.01,0,3.65,1.63,3.65,3.65v13.89c0,2.01-1.63,3.65-3.65,3.65H6.52c-2.01,0-3.65-1.63-3.65-3.65v-13.89c0-2.01,1.63-3.65,3.65-3.65Z" transform="translate(-26.66 22.2) rotate(-45)"/>
      <rect class="cls-1" x="134.64" y="32.69" width="21.18" height="21.18" rx="3.65" ry="3.65" transform="translate(11.94 115.37) rotate(-45)"/>
      <path class="cls-1" d="m72.4,11.51h13.89c2.01,0,3.65,1.63,3.65,3.65v13.89c0,2.01-1.63,3.65-3.65,3.65h-13.89c-2.01,0-3.65-1.63-3.65-3.65v-13.89c0-2.01,1.63-3.65,3.65-3.65Z"/>
      <path class="cls-1" d="m125.85,65.94c-13.01-10.93-29.51-16.93-46.52-16.93h-.79c-17.01,0-33.51,6-46.52,16.92-16.42,13.79-25.85,34-25.85,55.43s9.96,36.99,19.6,52.77c4.73,7.75,9.2,15.06,12.38,22.68,1.18,2.83,1.07,6.8.95,11-.15,5.23-.32,11.11,1.85,16.95,2.63,14.36,13.39,25.79,26.99,29.77v-20c0-.59.15-1.14.4-1.63-.21.41-5.17-5.25-5.52-5.85-3.17-5.59-3.92-12.38-3.73-18.65.16-5.56.36-12.48-2.48-19.29-3.77-9.03-8.85-17.35-13.77-25.4-8.57-14.04-16.67-27.29-16.67-42.35s6.82-30.13,18.71-40.11c9.41-7.9,21.35-12.24,33.66-12.24.11,0,.22,0,.33,0h.13c.11,0,.22,0,.33,0,12.31,0,24.25,4.34,33.65,12.24,11.89,9.98,18.71,24.6,18.71,40.11s-8.1,28.31-16.67,42.35c-4.91,8.05-9.99,16.37-13.77,25.4-2.84,6.81-2.64,13.73-2.48,19.29.26,9-1.66,19.81-9.88,24.92.14.38.23.79.23,1.22v20.23c13.99-3.76,25.11-15.36,27.8-30,2.17-5.85,2-11.72,1.85-16.95-.12-4.2-.24-8.17.95-11,3.18-7.62,7.65-14.94,12.38-22.68,9.64-15.78,19.6-32.09,19.6-52.77s-9.42-41.63-25.85-55.43Z"/>
    </g>
  </g>
</svg>