<?xml version="1.0" encoding="UTF-8"?>
<svg id="Layer_1" data-name="Layer 1" xmlns="http://www.w3.org/2000/svg" viewBox="0 0 288 259.2">
  <defs>
    <style>
      .cls-1 {
        fill: #055a79;
        stroke-width: 0px;
      }
    </style>
  </defs>
  <rect class="cls-1" y="192.66" width="136.2" height="21.18" rx="3.4" ry="3.4"/>
  <path class="cls-1" d="m3.12,185.82c13.69-.65,26.67-8.2,35.87-20.95,9.59-13.28,14.23-31.08,12.75-48.83-.24-2.85-.52-5.61-.79-8.29-.41-4.07-.8-12.94-.98-16.45h36.26c-.18,3.51-.57,12.38-.98,16.45-.27,2.68-.55,5.44-.79,8.29-1.49,17.75,3.16,35.54,12.75,48.83,9.2,12.75,22.18,20.3,35.87,20.95,1.05.05,1.93-.97,1.93-2.28v-20.42c0-1.2-.74-2.21-1.7-2.27-8.11-.56-15.77-5.11-21.24-12.68-5.89-8.16-8.63-18.64-7.71-29.52.22-2.59.48-5.22.74-7.77.48-4.79.98-9.74,1.17-14.49.26-6.69-1.67-13.25-5.3-18-3.46-4.54-8.08-7.03-13.01-7.03h-39.7c-4.92,0-9.54,2.5-13.01,7.03-3.63,4.75-5.56,11.31-5.3,18,.18,4.76.68,9.71,1.17,14.5.26,2.55.52,5.18.74,7.77.91,10.88-1.83,21.37-7.71,29.52-5.46,7.57-13.13,12.12-21.24,12.68-.96.07-1.7,1.07-1.7,2.27v20.42c0,1.31.88,2.33,1.93,2.28Z"/>
  <path class="cls-1" d="m24.4,59.84h87.41c1.88,0,3.4-1.52,3.4-3.4v-14.38c0-.4-.08-.78-.21-1.14V15.08c0-2.01-1.63-3.65-3.65-3.65h-13.89c-2.01,0-3.65,1.63-3.65,3.65v23.58h-14s.01-.08.01-.12V15.08c0-2.01-1.63-3.65-3.65-3.65h-13.89c-2.01,0-3.65,1.63-3.65,3.65v23.46s.01.08.01.12h-16.48V15.08c0-2.01-1.63-3.65-3.65-3.65h-13.89c-2.01,0-3.65,1.63-3.65,3.65v26.97s0,0,0,0v14.38c0,1.88,1.52,3.4,3.4,3.4Z"/>
</svg>