<?xml version="1.0" encoding="UTF-8"?>
<svg id="Layer_1" data-name="Layer 1" xmlns="http://www.w3.org/2000/svg" viewBox="0 0 288 259.2">
  <defs>
    <style>
      .cls-1 {
        fill: #055a79;
        stroke-width: 0px;
      }
    </style>
  </defs>
  <path class="cls-1" d="m92.15,52.25h52.08c1.99,0,3.6-1.61,3.6-3.6v-14.22c0-1.99-1.61-3.6-3.6-3.6h-50.99c-.55-.02-1.1-.05-1.66-.05-25.93,0-46.84,21.51-45.85,47.67.9,23.78,20.28,43.16,44.06,44.06,26.15.99,47.67-19.91,47.67-45.85,0-2.48-.2-4.91-.59-7.28-.28-1.73-1.8-2.99-3.55-2.99h-15.86c-1.66,0-2.89,1.6-2.41,3.19.99,3.21,1.34,6.69.89,10.31-1.35,11-10.15,19.86-21.14,21.27-15.26,1.94-28.22-10.12-27.78-25.1.39-13.11,12-23.81,25.11-23.81Z"/>
  <path class="cls-1" d="m180.7,207.25h-.05c-1.15-4.93-2.71-9.7-4.61-14.29h0s-.04-.08-.05-.12c-1.26-3.02-2.66-5.96-4.22-8.81h-.07c-15.62-28.14-45.64-47.19-80.11-47.19-36.76,0-68.45,21.65-83.03,52.9-.7,1.5.41,3.22,2.06,3.22h17.92c1.26,0,2.41-.67,3.08-1.74,12.45-20.04,34.65-33.38,59.97-33.38,22.39,0,42.33,10.44,55.26,26.7,5.28,6.69,9.36,14.37,11.94,22.71H2.43v.17h0c-1.58,6.74-2.42,13.77-2.42,21h0s178.43,0,178.43,0h4.73c0-7.29-.86-14.38-2.46-21.18Z"/>
</svg>