<?xml version="1.0" encoding="UTF-8"?>
<svg id="Layer_1" data-name="Layer 1" xmlns="http://www.w3.org/2000/svg" viewBox="0 0 288 259.2">
  <defs>
    <style>
      .cls-1 {
        fill: #055a79;
        stroke-width: 0px;
      }
    </style>
  </defs>
  <path class="cls-1" d="m.05,66.06c0,27.26,22.1,49.36,49.36,49.36s49.36-22.1,49.36-49.36-22.1-49.36-49.36-49.36S.05,38.8.05,66.06Zm77.54,0c0,15.57-12.62,28.18-28.18,28.18s-28.18-12.62-28.18-28.18,12.62-28.18,28.18-28.18,28.18,12.62,28.18,28.18Z"/>
  <rect class="cls-1" x="0" y="129.61" width="225.88" height="21.18" rx="3.78" ry="3.78"/>
  <path class="cls-1" d="m222.12,16.7h-91.29c-2.07,0-3.74,1.68-3.74,3.74v91.32c0,2.07,1.67,3.74,3.74,3.74h91.29c2.07,0,3.74-1.67,3.74-3.74V20.44c0-2.07-1.67-3.74-3.74-3.74Zm-17.44,77.62h-56.42v-56.45h56.42v56.45Z"/>
  <path class="cls-1" d="m126.91,150.63h-27.93l-1.17,1.17L29.28,220.05c-.67.67-1.05,1.57-1.05,2.52v16.38c0,1.96,1.59,3.56,3.56,3.56h162.3c1.96,0,3.56-1.59,3.56-3.56v-16.38c0-.95-.38-1.85-1.05-2.52l-69.7-69.42Zm-68.11,70.46l54.15-54.15,54.15,54.15H58.79Z"/>
</svg>