<?xml version="1.0" encoding="UTF-8"?>
<svg id="Layer_1" data-name="Layer 1" xmlns="http://www.w3.org/2000/svg" viewBox="0 0 288 259.2">
  <defs>
    <style>
      .cls-1 {
        fill: #055a79;
        stroke-width: 0px;
      }
    </style>
  </defs>
  <rect class="cls-1" x="42.35" y="63.02" width="107.57" height="21.18" rx="3.4" ry="3.4"/>
  <rect class="cls-1" x="42.35" y="116.32" width="76.39" height="21.18" rx="3.4" ry="3.4"/>
  <rect class="cls-1" x="42.35" y="169.61" width="56.47" height="21.18" rx="3.4" ry="3.4"/>
  <path class="cls-1" d="m233.94,42.34l-8.68-6.33c-2.33-1.7-5.64-1.12-7.39,1.29l-99.13,136.03.14.11.24,17.35,16.59-5.09.14.11L234.98,49.77c1.75-2.41,1.29-5.73-1.04-7.43Z"/>
  <path class="cls-1" d="m208.42,143.91h-14.44c-1.86,0-3.37,1.51-3.37,3.37v10.94c0,.08-.03.16-.03.25v52.8H21.18V41.85h46.62s0,0,0,0h112.81c1.86,0,3.37-1.51,3.37-3.37v-14.44c0-1.86-1.51-3.37-3.37-3.37H14.2c-7.84,0-14.2,6.36-14.2,14.2v183.37c0,7.84,6.36,14.2,14.2,14.2h183.4c7.84,0,14.2-6.36,14.2-14.2v-6.14s0-.02,0-.02v-64.79c0-1.86-1.51-3.37-3.37-3.37Z"/>
</svg>