<?xml version="1.0" encoding="UTF-8"?>
<svg xmlns="http://www.w3.org/2000/svg" viewBox="0 0 288 259.2">
  <defs>
    <style>
      .cls-1 {
        fill: #055a79;
        stroke-width: 0px;
      }

      .cls-2 {
        fill: none;
        stroke: #bcbec0;
        stroke-miterlimit: 10;
        stroke-width: .5px;
      }
    </style>
  </defs>
  <g id="Layer_2" data-name="Layer 2">
    <g>
      <rect class="cls-2" x="16.94" y="2.54" width="254.12" height="254.12"/>
      <line class="cls-2" x1="24" y1="2.54" x2="24" y2="256.66"/>
      <line class="cls-2" x1="16.94" y1="2.54" x2="16.94" y2="256.66"/>
      <line class="cls-2" x1="31.06" y1="2.54" x2="31.06" y2="256.66"/>
      <line class="cls-2" x1="38.12" y1="2.54" x2="38.12" y2="256.66"/>
      <line class="cls-2" x1="45.18" y1="2.54" x2="45.18" y2="256.66"/>
      <line class="cls-2" x1="52.24" y1="2.54" x2="52.24" y2="256.66"/>
      <line class="cls-2" x1="59.29" y1="2.54" x2="59.29" y2="256.66"/>
      <line class="cls-2" x1="66.35" y1="2.54" x2="66.35" y2="256.66"/>
      <line class="cls-2" x1="73.41" y1="2.54" x2="73.41" y2="256.66"/>
      <line class="cls-2" x1="80.47" y1="2.54" x2="80.47" y2="256.66"/>
      <line class="cls-2" x1="87.53" y1="2.54" x2="87.53" y2="256.66"/>
      <line class="cls-2" x1="94.59" y1="2.54" x2="94.59" y2="256.66"/>
      <line class="cls-2" x1="108.71" y1="2.54" x2="108.71" y2="256.66"/>
      <line class="cls-2" x1="101.65" y1="2.54" x2="101.65" y2="256.66"/>
      <line class="cls-2" x1="122.82" y1="2.54" x2="122.82" y2="256.66"/>
      <line class="cls-2" x1="115.76" y1="2.54" x2="115.76" y2="256.66"/>
      <line class="cls-2" x1="136.94" y1="2.54" x2="136.94" y2="256.66"/>
      <line class="cls-2" x1="129.88" y1="2.54" x2="129.88" y2="256.66"/>
      <line class="cls-2" x1="151.06" y1="2.54" x2="151.06" y2="256.66"/>
      <line class="cls-2" x1="144" y1="2.54" x2="144" y2="256.66"/>
      <line class="cls-2" x1="165.18" y1="2.54" x2="165.18" y2="256.66"/>
      <line class="cls-2" x1="158.12" y1="2.54" x2="158.12" y2="256.66"/>
      <line class="cls-2" x1="179.29" y1="2.54" x2="179.29" y2="256.66"/>
      <line class="cls-2" x1="172.24" y1="2.54" x2="172.24" y2="256.66"/>
      <line class="cls-2" x1="193.41" y1="2.54" x2="193.41" y2="256.66"/>
      <line class="cls-2" x1="186.35" y1="2.54" x2="186.35" y2="256.66"/>
      <line class="cls-2" x1="207.53" y1="2.54" x2="207.53" y2="256.66"/>
      <line class="cls-2" x1="200.47" y1="2.54" x2="200.47" y2="256.66"/>
      <line class="cls-2" x1="221.65" y1="2.54" x2="221.65" y2="256.66"/>
      <line class="cls-2" x1="214.59" y1="2.54" x2="214.59" y2="256.66"/>
      <line class="cls-2" x1="235.76" y1="2.54" x2="235.76" y2="256.66"/>
      <line class="cls-2" x1="228.71" y1="2.54" x2="228.71" y2="256.66"/>
      <line class="cls-2" x1="249.88" y1="2.54" x2="249.88" y2="256.66"/>
      <line class="cls-2" x1="242.82" y1="2.54" x2="242.82" y2="256.66"/>
      <line class="cls-2" x1="264" y1="2.54" x2="264" y2="256.66"/>
      <line class="cls-2" x1="271.06" y1="2.54" x2="271.06" y2="256.66"/>
      <line class="cls-2" x1="256.94" y1="2.54" x2="256.94" y2="256.66"/>
      <circle class="cls-2" cx="144" cy="129.6" r="127.06"/>
      <circle class="cls-2" cx="144" cy="129.6" r="105.88"/>
      <circle class="cls-2" cx="144" cy="129.6" r="35.29"/>
      <line class="cls-2" x1="16.94" y1="256.66" x2="271.06" y2="2.54"/>
      <line class="cls-2" x1="16.94" y1="2.54" x2="271.06" y2="256.66"/>
      <line class="cls-2" x1="271.06" y1="9.6" x2="16.94" y2="9.6"/>
      <line class="cls-2" x1="271.06" y1="2.54" x2="16.94" y2="2.54"/>
      <line class="cls-2" x1="271.06" y1="16.66" x2="16.94" y2="16.66"/>
      <line class="cls-2" x1="271.06" y1="23.72" x2="16.94" y2="23.72"/>
      <line class="cls-2" x1="271.06" y1="30.78" x2="16.94" y2="30.78"/>
      <line class="cls-2" x1="271.06" y1="37.84" x2="16.94" y2="37.84"/>
      <line class="cls-2" x1="271.06" y1="44.89" x2="16.94" y2="44.89"/>
      <line class="cls-2" x1="271.06" y1="51.95" x2="16.94" y2="51.95"/>
      <line class="cls-2" x1="271.06" y1="59.01" x2="16.94" y2="59.01"/>
      <line class="cls-2" x1="271.06" y1="66.07" x2="16.94" y2="66.07"/>
      <line class="cls-2" x1="271.06" y1="73.13" x2="16.94" y2="73.13"/>
      <line class="cls-2" x1="271.06" y1="80.19" x2="16.94" y2="80.19"/>
      <line class="cls-2" x1="271.06" y1="94.31" x2="16.94" y2="94.31"/>
      <line class="cls-2" x1="271.06" y1="87.25" x2="16.94" y2="87.25"/>
      <line class="cls-2" x1="271.06" y1="108.42" x2="16.94" y2="108.42"/>
      <line class="cls-2" x1="271.06" y1="101.36" x2="16.94" y2="101.36"/>
      <line class="cls-2" x1="271.06" y1="122.54" x2="16.94" y2="122.54"/>
      <line class="cls-2" x1="271.06" y1="115.48" x2="16.94" y2="115.48"/>
      <line class="cls-2" x1="271.06" y1="136.66" x2="16.94" y2="136.66"/>
      <line class="cls-2" x1="271.06" y1="129.6" x2="16.94" y2="129.6"/>
      <line class="cls-2" x1="271.06" y1="150.78" x2="16.94" y2="150.78"/>
      <line class="cls-2" x1="271.06" y1="143.72" x2="16.94" y2="143.72"/>
      <line class="cls-2" x1="271.06" y1="164.89" x2="16.94" y2="164.89"/>
      <line class="cls-2" x1="271.06" y1="157.84" x2="16.94" y2="157.84"/>
      <line class="cls-2" x1="271.06" y1="179.01" x2="16.94" y2="179.01"/>
      <line class="cls-2" x1="271.06" y1="171.95" x2="16.94" y2="171.95"/>
      <line class="cls-2" x1="271.06" y1="193.13" x2="16.94" y2="193.13"/>
      <line class="cls-2" x1="271.06" y1="186.07" x2="16.94" y2="186.07"/>
      <line class="cls-2" x1="271.06" y1="207.25" x2="16.94" y2="207.25"/>
      <line class="cls-2" x1="271.06" y1="200.19" x2="16.94" y2="200.19"/>
      <line class="cls-2" x1="271.06" y1="221.36" x2="16.94" y2="221.36"/>
      <line class="cls-2" x1="271.06" y1="214.31" x2="16.94" y2="214.31"/>
      <line class="cls-2" x1="271.06" y1="235.48" x2="16.94" y2="235.48"/>
      <line class="cls-2" x1="271.06" y1="228.42" x2="16.94" y2="228.42"/>
      <line class="cls-2" x1="271.06" y1="249.6" x2="16.94" y2="249.6"/>
      <line class="cls-2" x1="271.06" y1="256.66" x2="16.94" y2="256.66"/>
      <line class="cls-2" x1="271.06" y1="242.54" x2="16.94" y2="242.54"/>
    </g>
  </g>
  <g id="Layer_1" data-name="Layer 1">
    <g>
      <path class="cls-1" d="m3.54,87.24h14.1c1.95,0,3.54-1.58,3.54-3.54v-31.76h31.76c1.95,0,3.54-1.58,3.54-3.54v-14.1c0-1.95-1.58-3.54-3.54-3.54H14.21C6.36,30.77,0,37.13,0,44.98v38.72c0,1.95,1.58,3.54,3.54,3.54Z"/>
      <path class="cls-1" d="m183.44,30.77h-38.72c-1.95,0-3.54,1.58-3.54,3.54v14.1c0,1.95,1.58,3.54,3.54,3.54h31.76v31.76c0,1.95,1.58,3.54,3.54,3.54h14.1c1.95,0,3.54-1.58,3.54-3.54v-38.72c0-7.85-6.36-14.21-14.21-14.21Z"/>
      <path class="cls-1" d="m194.1,171.96h-14.1c-1.95,0-3.54,1.58-3.54,3.54v31.76h-31.76c-1.95,0-3.54,1.58-3.54,3.54v14.1c0,1.95,1.58,3.54,3.54,3.54h38.72c7.85,0,14.21-6.36,14.21-14.21v-38.72c0-1.95-1.58-3.54-3.54-3.54Z"/>
      <path class="cls-1" d="m52.94,207.25h-31.76v-31.75c0-1.95-1.58-3.54-3.54-3.54H3.54c-1.95,0-3.54,1.58-3.54,3.54v38.72c0,7.85,6.36,14.21,14.21,14.21h38.72c1.95,0,3.54-1.58,3.54-3.54v-14.1c0-1.95-1.58-3.54-3.54-3.54Z"/>
      <rect class="cls-1" x="42.39" y="92.98" width="21.18" height="21.18" rx="3.65" ry="3.65"/>
      <rect class="cls-1" x="133.99" y="92.98" width="21.18" height="21.18" rx="3.65" ry="3.65"/>
      <rect class="cls-1" x="42.39" y="145.5" width="21.18" height="21.18" rx="3.65" ry="3.65"/>
      <rect class="cls-1" x="133.99" y="145.5" width="21.18" height="21.18" rx="3.65" ry="3.65"/>
      <rect class="cls-1" x="88.12" y="171.95" width="21.18" height="21.18" rx="3.65" ry="3.65"/>
      <path class="cls-1" d="m91.77,66.06h13.89c2.01,0,3.65,1.63,3.65,3.65v13.89c0,2.01-1.63,3.65-3.65,3.65h-13.89c-2.01,0-3.65-1.63-3.65-3.65v-13.89c0-2.01,1.63-3.65,3.65-3.65Z"/>
      <rect class="cls-1" x="88.24" y="118.95" width="21.18" height="21.18" rx="3.65" ry="3.65"/>
    </g>
  </g>
</svg>