<?xml version="1.0" encoding="UTF-8"?>
<svg id="Layer_1" data-name="Layer 1" xmlns="http://www.w3.org/2000/svg" viewBox="0 0 288 259.2">
  <defs>
    <style>
      .cls-1 {
        fill: #055a79;
        stroke-width: 0px;
      }
    </style>
  </defs>
  <path class="cls-1" d="m77.7,129.6c0,27.26,22.1,49.36,49.36,49.36s49.36-22.1,49.36-49.36-22.1-49.36-49.36-49.36-49.36,22.1-49.36,49.36Zm77.54,0c0,15.57-12.62,28.18-28.18,28.18s-28.18-12.62-28.18-28.18,12.62-28.18,28.18-28.18,28.18,12.62,28.18,28.18Z"/>
  <path class="cls-1" d="m116.47,45.6v16.68c0,2.06,1.67,3.73,3.73,3.73h13.7c2.06,0,3.73-1.67,3.73-3.73v-16.65c.05,0,.1.01.15.02v-21.34c-.05,0-.1,0-.15-.01V6.27c0-2.06-1.67-3.73-3.73-3.73h-13.7c-2.06,0-3.73,1.67-3.73,3.73v18.04c-43.68,4.34-79.54,35.22-91.22,76.29-.61,2.15,1.02,4.29,3.26,4.29h15.1c1.47,0,2.74-.95,3.21-2.34,10.2-30.27,37.04-52.88,69.64-56.95Z"/>
  <path class="cls-1" d="m43.06,140.18h16.73c2.06,0,3.73-1.67,3.73-3.73v-13.7c0-2.06-1.67-3.73-3.73-3.73H3.73c-2.06,0-3.73,1.67-3.73,3.73v13.7c0,2.06,1.67,3.73,3.73,3.73h18.04c4.34,43.68,35.22,79.54,76.29,91.22,2.15.61,4.29-1.02,4.29-3.26v-15.1c0-1.47-.95-2.74-2.34-3.21-30.27-10.2-52.88-37.04-56.95-69.65Z"/>
  <path class="cls-1" d="m137.64,213.6v-16.79c0-2.06-1.67-3.73-3.73-3.73h-13.7c-2.06,0-3.73,1.67-3.73,3.73v56.11c0,2.06,1.67,3.73,3.73,3.73h13.7c2.06,0,3.73-1.67,3.73-3.73v-18.04c43.68-4.34,79.54-35.22,91.22-76.29.61-2.15-1.02-4.29-3.26-4.29h-15.1c-1.47,0-2.74.95-3.21,2.34-10.2,30.27-37.04,52.88-69.65,56.95Z"/>
  <path class="cls-1" d="m232.35,119.02c-4.33-43.62-35.14-79.45-76.14-91.17-2.15-.62-4.3,1.02-4.3,3.25v15.11c0,1.46.95,2.74,2.34,3.21,30.2,10.24,52.74,37.05,56.8,69.6h-16.72c-2.06,0-3.73,1.67-3.73,3.73v13.7c0,2.06,1.67,3.73,3.73,3.73h56.04c2.06,0,3.73-1.67,3.73-3.73v-13.7c0-2.06-1.67-3.73-3.73-3.73h-18.04Z"/>
</svg>