<?xml version="1.0" encoding="UTF-8"?>
<svg id="Layer_1" data-name="Layer 1" xmlns="http://www.w3.org/2000/svg" viewBox="0 0 288 258.91">
  <defs>
    <style>
      .cls-1 {
        fill: #055a79;
        stroke-width: 0px;
      }
    </style>
  </defs>
  <path class="cls-1" d="m.65,57.72h14.1c1.95,0,3.54-1.58,3.54-3.54v-31.76h31.76c1.95,0,3.54-1.58,3.54-3.54V4.79c0-1.95-1.58-3.54-3.54-3.54H11.32C3.47,1.25-2.89,7.61-2.89,15.46v38.72c0,1.95,1.58,3.54,3.54,3.54Z"/>
  <path class="cls-1" d="m240.55,1.25h-38.72c-1.95,0-3.54,1.58-3.54,3.54v14.1c0,1.95,1.58,3.54,3.54,3.54h31.76v31.76c0,1.95,1.58,3.54,3.54,3.54h14.1c1.95,0,3.54-1.58,3.54-3.54V15.46c0-7.85-6.36-14.21-14.21-14.21Z"/>
  <path class="cls-1" d="m251.21,202.43h-14.1c-1.95,0-3.54,1.58-3.54,3.54v31.76h-31.76c-1.95,0-3.54,1.58-3.54,3.54v14.1c0,1.95,1.58,3.54,3.54,3.54h38.72c7.85,0,14.21-6.36,14.21-14.21v-38.72c0-1.95-1.58-3.54-3.54-3.54Z"/>
  <path class="cls-1" d="m50.05,237.73h-31.76v-31.76c0-1.95-1.58-3.54-3.54-3.54H.66c-1.95,0-3.54,1.58-3.54,3.54v38.72c0,7.85,6.36,14.21,14.21,14.21h38.72c1.95,0,3.54-1.58,3.54-3.54v-14.1c0-1.95-1.58-3.54-3.54-3.54Z"/>
  <path class="cls-1" d="m207.53,214.79l13.2-5.71c1.72-.74,2.51-2.74,1.77-4.47l-40.01-92.5c-.74-1.72-2.74-2.51-4.47-1.77h-18.43c-1.72-.74-3.72.05-4.47,1.77l-13.16,30.43c-13.18-.45-25.28-3.94-35.06-9.54,12.48-13.83,20.37-31.53,21.41-50.92h13.25c1.88,0,3.4-1.52,3.4-3.4v-14.38c0-1.88-1.52-3.4-3.4-3.4h-37.71v-22.65c0-1.88-1.52-3.4-3.4-3.4h-14.38c-1.88,0-3.4,1.52-3.4,3.4v22.65h-41.89c-1.88,0-3.4,1.52-3.4,3.4v14.38c0,1.88,1.52,3.4,3.4,3.4h67.48c-1.03,14.51-7.16,27.73-16.73,38.09-4.96-6.16-8.01-13.25-8.53-20.82-.09-1.3-1.16-2.31-2.47-2.31h-15.06c-1.42,0-2.55,1.19-2.49,2.61.58,11.94,5.09,23.25,13.01,33.03-10,5.9-21.7,9.47-34.25,9.87-1.33.04-2.37,1.15-2.37,2.48v15.04c0,1.41,1.17,2.52,2.58,2.48,18.35-.5,35.32-6.32,49.28-15.88,12.02,8.31,26.65,13.57,42.33,15.29l-18.44,42.64c-.74,1.72.05,3.72,1.77,4.47l13.2,5.71c1.72.74,3.72-.05,4.47-1.77l12.2-28.22h44.1l12.2,28.22c.74,1.72,2.74,2.51,4.47,1.77Zm-51.61-51.16l12.89-29.8,12.89,29.8h-25.78Z"/>
</svg>