<?xml version="1.0" encoding="UTF-8"?>
<svg id="Layer_1" data-name="Layer 1" xmlns="http://www.w3.org/2000/svg" viewBox="0 0 288 259.2">
  <defs>
    <style>
      .cls-1 {
        fill: #055a79;
        stroke-width: 0px;
      }
    </style>
  </defs>
  <path class="cls-1" d="m191.01,58.7c-21.3-20.09-56.08-18.99-77.53,2.44l-9.35,9.35-9.35-9.35c-11.17-11.17-25.98-16.82-40.62-16.82-13.43,0-26.72,4.75-36.93,14.36C6.32,68.96.2,82.84,0,97.76c-.22,14.96,5.48,29,16.03,39.54l70.08,70.14c4.8,4.79,11.19,7.42,17.99,7.42s13.18-2.64,17.97-7.42l70.12-70.14c10.57-10.56,16.27-24.59,16.03-39.53-.22-14.94-6.33-28.81-17.22-39.07Zm-14.49,62.88l-72.4,72.41L31.76,121.59c-6.28-6.28-9.67-14.63-9.53-23.51.14-8.88,3.78-17.12,10.26-23.21l1.3-1.22h.08c5.58-4.64,12.72-7.18,20.32-7.18,8.6,0,17.05,3.29,23.5,9.08h52.91c13.08-11.77,32.97-12.2,45.2-.67,6.48,6.09,10.12,14.33,10.25,23.21.11,8.88-3.27,17.22-9.53,23.5Z"/>
</svg>