<?xml version="1.0" encoding="UTF-8"?>
<svg xmlns="http://www.w3.org/2000/svg" viewBox="0 0 288 259.2">
  <defs>
    <style>
      .cls-1 {
        fill: #055a79;
        stroke-width: 0px;
      }

      .cls-2 {
        fill: none;
        stroke: #bcbec0;
        stroke-miterlimit: 10;
        stroke-width: .5px;
      }
    </style>
  </defs>
  <g id="Layer_2" data-name="Layer 2">
    <g>
      <rect class="cls-2" x="16.94" y="2.54" width="254.12" height="254.12"/>
      <line class="cls-2" x1="24" y1="2.54" x2="24" y2="256.66"/>
      <line class="cls-2" x1="16.94" y1="2.54" x2="16.94" y2="256.66"/>
      <line class="cls-2" x1="31.06" y1="2.54" x2="31.06" y2="256.66"/>
      <line class="cls-2" x1="38.12" y1="2.54" x2="38.12" y2="256.66"/>
      <line class="cls-2" x1="45.18" y1="2.54" x2="45.18" y2="256.66"/>
      <line class="cls-2" x1="52.24" y1="2.54" x2="52.24" y2="256.66"/>
      <line class="cls-2" x1="59.29" y1="2.54" x2="59.29" y2="256.66"/>
      <line class="cls-2" x1="66.35" y1="2.54" x2="66.35" y2="256.66"/>
      <line class="cls-2" x1="73.41" y1="2.54" x2="73.41" y2="256.66"/>
      <line class="cls-2" x1="80.47" y1="2.54" x2="80.47" y2="256.66"/>
      <line class="cls-2" x1="87.53" y1="2.54" x2="87.53" y2="256.66"/>
      <line class="cls-2" x1="94.59" y1="2.54" x2="94.59" y2="256.66"/>
      <line class="cls-2" x1="108.71" y1="2.54" x2="108.71" y2="256.66"/>
      <line class="cls-2" x1="101.65" y1="2.54" x2="101.65" y2="256.66"/>
      <line class="cls-2" x1="122.82" y1="2.54" x2="122.82" y2="256.66"/>
      <line class="cls-2" x1="115.76" y1="2.54" x2="115.76" y2="256.66"/>
      <line class="cls-2" x1="136.94" y1="2.54" x2="136.94" y2="256.66"/>
      <line class="cls-2" x1="129.88" y1="2.54" x2="129.88" y2="256.66"/>
      <line class="cls-2" x1="151.06" y1="2.54" x2="151.06" y2="256.66"/>
      <line class="cls-2" x1="144" y1="2.54" x2="144" y2="256.66"/>
      <line class="cls-2" x1="165.18" y1="2.54" x2="165.18" y2="256.66"/>
      <line class="cls-2" x1="158.12" y1="2.54" x2="158.12" y2="256.66"/>
      <line class="cls-2" x1="179.29" y1="2.54" x2="179.29" y2="256.66"/>
      <line class="cls-2" x1="172.24" y1="2.54" x2="172.24" y2="256.66"/>
      <line class="cls-2" x1="193.41" y1="2.54" x2="193.41" y2="256.66"/>
      <line class="cls-2" x1="186.35" y1="2.54" x2="186.35" y2="256.66"/>
      <line class="cls-2" x1="207.53" y1="2.54" x2="207.53" y2="256.66"/>
      <line class="cls-2" x1="200.47" y1="2.54" x2="200.47" y2="256.66"/>
      <line class="cls-2" x1="221.65" y1="2.54" x2="221.65" y2="256.66"/>
      <line class="cls-2" x1="214.59" y1="2.54" x2="214.59" y2="256.66"/>
      <line class="cls-2" x1="235.76" y1="2.54" x2="235.76" y2="256.66"/>
      <line class="cls-2" x1="228.71" y1="2.54" x2="228.71" y2="256.66"/>
      <line class="cls-2" x1="249.88" y1="2.54" x2="249.88" y2="256.66"/>
      <line class="cls-2" x1="242.82" y1="2.54" x2="242.82" y2="256.66"/>
      <line class="cls-2" x1="264" y1="2.54" x2="264" y2="256.66"/>
      <line class="cls-2" x1="271.06" y1="2.54" x2="271.06" y2="256.66"/>
      <line class="cls-2" x1="256.94" y1="2.54" x2="256.94" y2="256.66"/>
      <circle class="cls-2" cx="144" cy="129.6" r="127.06"/>
      <circle class="cls-2" cx="144" cy="129.6" r="105.88"/>
      <circle class="cls-2" cx="144" cy="129.6" r="35.29"/>
      <line class="cls-2" x1="16.94" y1="256.66" x2="271.06" y2="2.54"/>
      <line class="cls-2" x1="16.94" y1="2.54" x2="271.06" y2="256.66"/>
      <line class="cls-2" x1="271.06" y1="9.6" x2="16.94" y2="9.6"/>
      <line class="cls-2" x1="271.06" y1="2.54" x2="16.94" y2="2.54"/>
      <line class="cls-2" x1="271.06" y1="16.66" x2="16.94" y2="16.66"/>
      <line class="cls-2" x1="271.06" y1="23.72" x2="16.94" y2="23.72"/>
      <line class="cls-2" x1="271.06" y1="30.78" x2="16.94" y2="30.78"/>
      <line class="cls-2" x1="271.06" y1="37.84" x2="16.94" y2="37.84"/>
      <line class="cls-2" x1="271.06" y1="44.89" x2="16.94" y2="44.89"/>
      <line class="cls-2" x1="271.06" y1="51.95" x2="16.94" y2="51.95"/>
      <line class="cls-2" x1="271.06" y1="59.01" x2="16.94" y2="59.01"/>
      <line class="cls-2" x1="271.06" y1="66.07" x2="16.94" y2="66.07"/>
      <line class="cls-2" x1="271.06" y1="73.13" x2="16.94" y2="73.13"/>
      <line class="cls-2" x1="271.06" y1="80.19" x2="16.94" y2="80.19"/>
      <line class="cls-2" x1="271.06" y1="94.31" x2="16.94" y2="94.31"/>
      <line class="cls-2" x1="271.06" y1="87.25" x2="16.94" y2="87.25"/>
      <line class="cls-2" x1="271.06" y1="108.42" x2="16.94" y2="108.42"/>
      <line class="cls-2" x1="271.06" y1="101.36" x2="16.94" y2="101.36"/>
      <line class="cls-2" x1="271.06" y1="122.54" x2="16.94" y2="122.54"/>
      <line class="cls-2" x1="271.06" y1="115.48" x2="16.94" y2="115.48"/>
      <line class="cls-2" x1="271.06" y1="136.66" x2="16.94" y2="136.66"/>
      <line class="cls-2" x1="271.06" y1="129.6" x2="16.94" y2="129.6"/>
      <line class="cls-2" x1="271.06" y1="150.78" x2="16.94" y2="150.78"/>
      <line class="cls-2" x1="271.06" y1="143.72" x2="16.94" y2="143.72"/>
      <line class="cls-2" x1="271.06" y1="164.89" x2="16.94" y2="164.89"/>
      <line class="cls-2" x1="271.06" y1="157.84" x2="16.94" y2="157.84"/>
      <line class="cls-2" x1="271.06" y1="179.01" x2="16.94" y2="179.01"/>
      <line class="cls-2" x1="271.06" y1="171.95" x2="16.94" y2="171.95"/>
      <line class="cls-2" x1="271.06" y1="193.13" x2="16.94" y2="193.13"/>
      <line class="cls-2" x1="271.06" y1="186.07" x2="16.94" y2="186.07"/>
      <line class="cls-2" x1="271.06" y1="207.25" x2="16.94" y2="207.25"/>
      <line class="cls-2" x1="271.06" y1="200.19" x2="16.94" y2="200.19"/>
      <line class="cls-2" x1="271.06" y1="221.36" x2="16.94" y2="221.36"/>
      <line class="cls-2" x1="271.06" y1="214.31" x2="16.94" y2="214.31"/>
      <line class="cls-2" x1="271.06" y1="235.48" x2="16.94" y2="235.48"/>
      <line class="cls-2" x1="271.06" y1="228.42" x2="16.94" y2="228.42"/>
      <line class="cls-2" x1="271.06" y1="249.6" x2="16.94" y2="249.6"/>
      <line class="cls-2" x1="271.06" y1="256.66" x2="16.94" y2="256.66"/>
      <line class="cls-2" x1="271.06" y1="242.54" x2="16.94" y2="242.54"/>
    </g>
  </g>
  <g id="Layer_1" data-name="Layer 1">
    <g>
      <rect class="cls-1" x="0" y="207.27" width="211.76" height="21.18" rx="3.45" ry="3.45"/>
      <path class="cls-1" d="m158.97,193.1h49.12c2.03,0,3.67-1.65,3.67-3.67V34.43c0-2.03-1.65-3.67-3.67-3.67h-49.12c-2.03,0-3.67,1.65-3.67,3.67v17.5h35.29v120h-14.12v-105.88h-21.18v123.38c0,2.03,1.65,3.67,3.67,3.67Z"/>
      <path class="cls-1" d="m77.65,108.37v81.44c0,1.85,1.5,3.34,3.34,3.34h49.78c1.85,0,3.34-1.5,3.34-3.34v-113.34c0-1.85-1.5-3.34-3.34-3.34h-49.78c-1.85,0-3.34,1.5-3.34,3.34v17.83h35.29v77.67h-14.12v-63.6h-21.18Z"/>
      <path class="cls-1" d="m35.3,171.98h-14.12v-21.23H0v38.67c0,2.06,1.67,3.73,3.73,3.73h49c2.06,0,3.73-1.67,3.73-3.73v-70.18c0-2.06-1.67-3.73-3.74-3.73H3.73c-2.06,0-3.73,1.67-3.73,3.73v17.44h35.3v35.29Z"/>
    </g>
  </g>
</svg>