<?xml version="1.0" encoding="UTF-8"?>
<svg id="Layer_1" data-name="Layer 1" xmlns="http://www.w3.org/2000/svg" viewBox="0 0 288 259.2">
  <defs>
    <style>
      .cls-1 {
        fill: #055a79;
        stroke-width: 0px;
      }
    </style>
  </defs>
  <rect class="cls-1" x="67.95" y="111.95" width="21.18" height="21.18" rx="3.65" ry="3.65"/>
  <path class="cls-1" d="m89.13,154.42c0-2.01-1.63-3.65-3.65-3.65h-13.89c-2.01,0-3.65,1.63-3.65,3.65v77.97h21.18v-77.97Z"/>
  <path class="cls-1" d="m6.52,32.69h13.89c2.01,0,3.65,1.63,3.65,3.65v13.89c0,2.01-1.63,3.65-3.65,3.65H6.52c-2.01,0-3.65-1.63-3.65-3.65v-13.89c0-2.01,1.63-3.65,3.65-3.65Z" transform="translate(-26.66 22.2) rotate(-45)"/>
  <rect class="cls-1" x="134.64" y="32.69" width="21.18" height="21.18" rx="3.65" ry="3.65" transform="translate(11.94 115.37) rotate(-45)"/>
  <path class="cls-1" d="m72.4,11.51h13.89c2.01,0,3.65,1.63,3.65,3.65v13.89c0,2.01-1.63,3.65-3.65,3.65h-13.89c-2.01,0-3.65-1.63-3.65-3.65v-13.89c0-2.01,1.63-3.65,3.65-3.65Z"/>
  <path class="cls-1" d="m125.85,65.94c-13.01-10.93-29.51-16.93-46.52-16.93h-.79c-17.01,0-33.51,6-46.52,16.92-16.42,13.79-25.85,34-25.85,55.43s9.96,36.99,19.6,52.77c4.73,7.75,9.2,15.06,12.38,22.68,1.18,2.83,1.07,6.8.95,11-.15,5.23-.32,11.11,1.85,16.95,2.63,14.36,13.39,25.79,26.99,29.77v-20c0-.59.15-1.14.4-1.63-.21.41-5.17-5.25-5.52-5.85-3.17-5.59-3.92-12.38-3.73-18.65.16-5.56.36-12.48-2.48-19.29-3.77-9.03-8.85-17.35-13.77-25.4-8.57-14.04-16.67-27.29-16.67-42.35s6.82-30.13,18.71-40.11c9.41-7.9,21.35-12.24,33.66-12.24.11,0,.22,0,.33,0h.13c.11,0,.22,0,.33,0,12.31,0,24.25,4.34,33.65,12.24,11.89,9.98,18.71,24.6,18.71,40.11s-8.1,28.31-16.67,42.35c-4.91,8.05-9.99,16.37-13.77,25.4-2.84,6.81-2.64,13.73-2.48,19.29.26,9-1.66,19.81-9.88,24.92.14.38.23.79.23,1.22v20.23c13.99-3.76,25.11-15.36,27.8-30,2.17-5.85,2-11.72,1.85-16.95-.12-4.2-.24-8.17.95-11,3.18-7.62,7.65-14.94,12.38-22.68,9.64-15.78,19.6-32.09,19.6-52.77s-9.42-41.63-25.85-55.43Z"/>
</svg>