<?xml version="1.0" encoding="UTF-8"?>
<svg id="Layer_1" data-name="Layer 1" xmlns="http://www.w3.org/2000/svg" viewBox="0 0 288 259.2">
  <defs>
    <style>
      .cls-1 {
        fill: #055a79;
        stroke-width: 0px;
      }
    </style>
  </defs>
  <rect class="cls-1" y="207.27" width="211.76" height="21.18" rx="3.45" ry="3.45"/>
  <rect class="cls-1" y="30.75" width="21.18" height="162.35" rx="3.02" ry="3.02"/>
  <path class="cls-1" d="m47.18,178.2c.95.96,2.5.96,3.46,0l47.54-47.54,19.46,19.46c.75.75,1.9.85,2.76.3.36-.13.69-.33.98-.61l62.15-62.15v18.96c0,.98.8,1.78,1.78,1.78h17.62c.98,0,1.78-.8,1.78-1.78v-52.91c0-.12-.01-.24-.04-.36-.07-.35-.24-.66-.49-.9-.08-.08-.17-.15-.26-.22-.19-.13-.4-.22-.64-.27-.12-.02-.24-.04-.36-.04h-52.91c-.98,0-1.78.8-1.78,1.78v17.62c0,.98.8,1.78,1.78,1.78h18.12l-48.78,48.78-10.38-10.38-9.07-9.07c-.95-.95-2.5-.95-3.46,0l-60.78,60.78c-.95.95-.95,2.5,0,3.46l11.52,11.52Z"/>
</svg>