<?xml version="1.0" encoding="UTF-8"?>
<svg id="Layer_1" data-name="Layer 1" xmlns="http://www.w3.org/2000/svg" viewBox="0 0 288 259.2">
  <defs>
    <style>
      .cls-1 {
        fill: #055a79;
        stroke-width: 0px;
      }
    </style>
  </defs>
  <path class="cls-1" d="m3.65,119.01h13.89c2.01,0,3.65,1.63,3.65,3.65v13.89c0,2.01-1.63,3.65-3.65,3.65H3.65c-2.01,0-3.65-1.63-3.65-3.65v-13.89c0-2.01,1.63-3.65,3.65-3.65Z"/>
  <path class="cls-1" d="m194.23,119.01h13.89c2.01,0,3.65,1.63,3.65,3.65v13.89c0,2.01-1.63,3.65-3.65,3.65h-13.89c-2.01,0-3.65-1.63-3.65-3.65v-13.89c0-2.01,1.63-3.65,3.65-3.65Z"/>
  <path class="cls-1" d="m49.41,129.65c0,31.19,25.28,56.47,56.47,56.47s56.47-25.28,56.47-56.47-25.28-56.47-56.47-56.47-56.47,25.28-56.47,56.47Zm91.76,0c0,19.49-15.8,35.29-35.29,35.29s-35.29-15.8-35.29-35.29,15.8-35.29,35.29-35.29,35.29,15.8,35.29,35.29Z"/>
  <path class="cls-1" d="m98.94,23.72h13.89c2.01,0,3.65,1.63,3.65,3.65v13.89c0,2.01-1.63,3.65-3.65,3.65h-13.89c-2.01,0-3.65-1.63-3.65-3.65v-13.89c0-2.01,1.63-3.65,3.65-3.65Z"/>
  <path class="cls-1" d="m98.94,214.31h13.89c2.01,0,3.65,1.63,3.65,3.65v13.89c0,2.01-1.63,3.65-3.65,3.65h-13.89c-2.01,0-3.65-1.63-3.65-3.65v-13.89c0-2.01,1.63-3.65,3.65-3.65Z"/>
  <path class="cls-1" d="m7.82,104.95h14.27c1.61,0,3.05-1.01,3.57-2.53,8.44-24.87,28.11-44.54,52.98-52.98,1.52-.52,2.53-1.96,2.53-3.57v-14.27c0-2.54-2.44-4.33-4.88-3.62C41.61,38.04,14.27,65.38,4.2,100.07c-.71,2.44,1.09,4.88,3.62,4.88Z"/>
  <path class="cls-1" d="m133.12,49.43c24.87,8.44,44.54,28.11,52.98,52.98.52,1.52,1.96,2.53,3.57,2.53h14.27c2.54,0,4.33-2.44,3.62-4.88-10.08-34.69-37.41-62.02-72.1-72.1-2.44-.71-4.88,1.09-4.88,3.62v14.27c0,1.61,1.01,3.05,2.53,3.57Z"/>
  <path class="cls-1" d="m78.64,209.87c-24.87-8.44-44.54-28.11-52.98-52.98-.52-1.52-1.96-2.53-3.57-2.53H7.82c-2.54,0-4.33,2.44-3.62,4.88,10.07,34.69,37.41,62.02,72.1,72.1,2.44.71,4.88-1.09,4.88-3.62v-14.27c0-1.61-1.01-3.05-2.53-3.57Z"/>
  <path class="cls-1" d="m203.94,154.36h-14.27c-1.61,0-3.05,1.01-3.57,2.53-8.44,24.87-28.11,44.54-52.98,52.98-1.52.52-2.53,1.96-2.53,3.57v14.27c0,2.54,2.44,4.33,4.88,3.62,34.69-10.08,62.02-37.41,72.1-72.1.71-2.44-1.09-4.88-3.62-4.88Z"/>
</svg>