<?xml version="1.0" encoding="UTF-8"?>
<svg id="Layer_1" data-name="Layer 1" xmlns="http://www.w3.org/2000/svg" viewBox="0 0 288 259.2">
  <defs>
    <style>
      .cls-1 {
        fill: #055a79;
        stroke-width: 0px;
      }
    </style>
  </defs>
  <path class="cls-1" d="m217.77,48.76l-9.83-9.83c-1.42-1.42-3.72-1.42-5.14,0l-20.06,20.06H14.4c-7.95,0-14.4,6.45-14.4,14.4v6.78h21.3s21.18,0,21.18,0h0s21.18,0,21.18,0h0s97.91,0,97.91,0l-55.61,55.61.06,14.97h14.91l96.85-96.85c1.42-1.42,1.42-3.72,0-5.14Z"/>
  <path class="cls-1" d="m208.25,94.28h-13.9c-2.01,0-3.64,1.63-3.64,3.64v102.25H63.65v-102.28c0-1.99-1.61-3.6-3.6-3.6h-13.98c-1.99,0-3.6,1.61-3.6,3.6v102.28h-21.18v-102.28c0-1.99-1.61-3.6-3.6-3.6H3.6c-1.99,0-3.6,1.61-3.6,3.6v109.06c0,7.95,6.45,14.4,14.4,14.4h183.08c7.95,0,14.4-6.45,14.4-14.4v-109.02c0-2.01-1.63-3.64-3.64-3.64Z"/>
</svg>