<?xml version="1.0" encoding="UTF-8"?>
<svg xmlns="http://www.w3.org/2000/svg" viewBox="0 0 288 263.52">
  <defs>
    <style>
      .cls-1 {
        fill: #055a79;
        stroke-width: 0px;
      }

      .cls-2 {
        fill: none;
        stroke: #bcbec0;
        stroke-miterlimit: 10;
        stroke-width: .5px;
      }
    </style>
  </defs>
  <g id="Layer_2" data-name="Layer 2">
    <g>
      <rect class="cls-2" x="16.94" y="4.7" width="254.12" height="254.12"/>
      <line class="cls-2" x1="24" y1="4.7" x2="24" y2="258.82"/>
      <line class="cls-2" x1="16.94" y1="4.7" x2="16.94" y2="258.82"/>
      <line class="cls-2" x1="31.06" y1="4.7" x2="31.06" y2="258.82"/>
      <line class="cls-2" x1="38.12" y1="4.7" x2="38.12" y2="258.82"/>
      <line class="cls-2" x1="45.18" y1="4.7" x2="45.18" y2="258.82"/>
      <line class="cls-2" x1="52.24" y1="4.7" x2="52.24" y2="258.82"/>
      <line class="cls-2" x1="59.29" y1="4.7" x2="59.29" y2="258.82"/>
      <line class="cls-2" x1="66.35" y1="4.7" x2="66.35" y2="258.82"/>
      <line class="cls-2" x1="73.41" y1="4.7" x2="73.41" y2="258.82"/>
      <line class="cls-2" x1="80.47" y1="4.7" x2="80.47" y2="258.82"/>
      <line class="cls-2" x1="87.53" y1="4.7" x2="87.53" y2="258.82"/>
      <line class="cls-2" x1="94.59" y1="4.7" x2="94.59" y2="258.82"/>
      <line class="cls-2" x1="108.71" y1="4.7" x2="108.71" y2="258.82"/>
      <line class="cls-2" x1="101.65" y1="4.7" x2="101.65" y2="258.82"/>
      <line class="cls-2" x1="122.82" y1="4.7" x2="122.82" y2="258.82"/>
      <line class="cls-2" x1="115.76" y1="4.7" x2="115.76" y2="258.82"/>
      <line class="cls-2" x1="136.94" y1="4.7" x2="136.94" y2="258.82"/>
      <line class="cls-2" x1="129.88" y1="4.7" x2="129.88" y2="258.82"/>
      <line class="cls-2" x1="151.06" y1="4.7" x2="151.06" y2="258.82"/>
      <line class="cls-2" x1="144" y1="4.7" x2="144" y2="258.82"/>
      <line class="cls-2" x1="165.18" y1="4.7" x2="165.18" y2="258.82"/>
      <line class="cls-2" x1="158.12" y1="4.7" x2="158.12" y2="258.82"/>
      <line class="cls-2" x1="179.29" y1="4.7" x2="179.29" y2="258.82"/>
      <line class="cls-2" x1="172.24" y1="4.7" x2="172.24" y2="258.82"/>
      <line class="cls-2" x1="193.41" y1="4.7" x2="193.41" y2="258.82"/>
      <line class="cls-2" x1="186.35" y1="4.7" x2="186.35" y2="258.82"/>
      <line class="cls-2" x1="207.53" y1="4.7" x2="207.53" y2="258.82"/>
      <line class="cls-2" x1="200.47" y1="4.7" x2="200.47" y2="258.82"/>
      <line class="cls-2" x1="221.65" y1="4.7" x2="221.65" y2="258.82"/>
      <line class="cls-2" x1="214.59" y1="4.7" x2="214.59" y2="258.82"/>
      <line class="cls-2" x1="235.76" y1="4.7" x2="235.76" y2="258.82"/>
      <line class="cls-2" x1="228.71" y1="4.7" x2="228.71" y2="258.82"/>
      <line class="cls-2" x1="249.88" y1="4.7" x2="249.88" y2="258.82"/>
      <line class="cls-2" x1="242.82" y1="4.7" x2="242.82" y2="258.82"/>
      <line class="cls-2" x1="264" y1="4.7" x2="264" y2="258.82"/>
      <line class="cls-2" x1="271.06" y1="4.7" x2="271.06" y2="258.82"/>
      <line class="cls-2" x1="256.94" y1="4.7" x2="256.94" y2="258.82"/>
      <circle class="cls-2" cx="144" cy="131.76" r="127.06"/>
      <circle class="cls-2" cx="144" cy="131.76" r="105.88"/>
      <circle class="cls-2" cx="144" cy="131.76" r="35.29"/>
      <line class="cls-2" x1="16.94" y1="258.82" x2="271.06" y2="4.7"/>
      <line class="cls-2" x1="16.94" y1="4.7" x2="271.06" y2="258.82"/>
      <line class="cls-2" x1="271.06" y1="11.76" x2="16.94" y2="11.76"/>
      <line class="cls-2" x1="271.06" y1="4.7" x2="16.94" y2="4.7"/>
      <line class="cls-2" x1="271.06" y1="18.82" x2="16.94" y2="18.82"/>
      <line class="cls-2" x1="271.06" y1="25.88" x2="16.94" y2="25.88"/>
      <line class="cls-2" x1="271.06" y1="32.94" x2="16.94" y2="32.94"/>
      <line class="cls-2" x1="271.06" y1="40" x2="16.94" y2="40"/>
      <line class="cls-2" x1="271.06" y1="47.05" x2="16.94" y2="47.05"/>
      <line class="cls-2" x1="271.06" y1="54.11" x2="16.94" y2="54.11"/>
      <line class="cls-2" x1="271.06" y1="61.17" x2="16.94" y2="61.17"/>
      <line class="cls-2" x1="271.06" y1="68.23" x2="16.94" y2="68.23"/>
      <line class="cls-2" x1="271.06" y1="75.29" x2="16.94" y2="75.29"/>
      <line class="cls-2" x1="271.06" y1="82.35" x2="16.94" y2="82.35"/>
      <line class="cls-2" x1="271.06" y1="96.47" x2="16.94" y2="96.47"/>
      <line class="cls-2" x1="271.06" y1="89.41" x2="16.94" y2="89.41"/>
      <line class="cls-2" x1="271.06" y1="110.58" x2="16.94" y2="110.58"/>
      <line class="cls-2" x1="271.06" y1="103.52" x2="16.94" y2="103.52"/>
      <line class="cls-2" x1="271.06" y1="124.7" x2="16.94" y2="124.7"/>
      <line class="cls-2" x1="271.06" y1="117.64" x2="16.94" y2="117.64"/>
      <line class="cls-2" x1="271.06" y1="138.82" x2="16.94" y2="138.82"/>
      <line class="cls-2" x1="271.06" y1="131.76" x2="16.94" y2="131.76"/>
      <line class="cls-2" x1="271.06" y1="152.94" x2="16.94" y2="152.94"/>
      <line class="cls-2" x1="271.06" y1="145.88" x2="16.94" y2="145.88"/>
      <line class="cls-2" x1="271.06" y1="167.05" x2="16.94" y2="167.05"/>
      <line class="cls-2" x1="271.06" y1="160" x2="16.94" y2="160"/>
      <line class="cls-2" x1="271.06" y1="181.17" x2="16.94" y2="181.17"/>
      <line class="cls-2" x1="271.06" y1="174.11" x2="16.94" y2="174.11"/>
      <line class="cls-2" x1="271.06" y1="195.29" x2="16.94" y2="195.29"/>
      <line class="cls-2" x1="271.06" y1="188.23" x2="16.94" y2="188.23"/>
      <line class="cls-2" x1="271.06" y1="209.41" x2="16.94" y2="209.41"/>
      <line class="cls-2" x1="271.06" y1="202.35" x2="16.94" y2="202.35"/>
      <line class="cls-2" x1="271.06" y1="223.52" x2="16.94" y2="223.52"/>
      <line class="cls-2" x1="271.06" y1="216.47" x2="16.94" y2="216.47"/>
      <line class="cls-2" x1="271.06" y1="237.64" x2="16.94" y2="237.64"/>
      <line class="cls-2" x1="271.06" y1="230.58" x2="16.94" y2="230.58"/>
      <line class="cls-2" x1="271.06" y1="251.76" x2="16.94" y2="251.76"/>
      <line class="cls-2" x1="271.06" y1="258.82" x2="16.94" y2="258.82"/>
      <line class="cls-2" x1="271.06" y1="244.7" x2="16.94" y2="244.7"/>
    </g>
  </g>
  <g id="Layer_1" data-name="Layer 1">
    <g>
      <polygon class="cls-1" points="197.28 54.11 197.28 32.94 197.28 32.94 176.1 32.94 122.94 32.94 122.94 54.11 176.1 54.11 176.1 209.41 122.94 209.41 122.94 230.58 197.28 230.58 197.28 209.41 197.28 209.41 197.28 54.11 197.28 54.11"/>
      <polygon class="cls-1" points="20.44 54.11 75.62 54.11 75.62 32.94 20.44 32.94 1.29 32.94 0 32.94 0 230.53 1.29 230.53 1.29 230.58 75.62 230.58 75.62 209.41 20.44 209.41 20.44 54.11"/>
      <polygon class="cls-1" points="154.93 75.29 41.98 75.29 41.98 75.29 41.98 106.98 63.16 106.98 63.16 96.47 133.75 96.47 133.75 106.98 154.93 106.98 154.93 96.47 154.93 96.47 154.93 75.29"/>
      <polygon class="cls-1" points="154.93 188.23 154.93 167.05 154.93 167.05 154.93 156.54 133.75 156.54 133.75 167.05 63.16 167.05 63.16 156.54 41.98 156.54 41.98 188.23 41.98 188.23 154.93 188.23"/>
      <path class="cls-1" d="m91.51,32.94h13.89c2.01,0,3.65,1.63,3.65,3.65v13.89c0,2.01-1.63,3.65-3.65,3.65h-13.89c-2.01,0-3.65-1.63-3.65-3.65v-13.89c0-2.01,1.63-3.65,3.65-3.65Z"/>
      <path class="cls-1" d="m91.51,209.41h13.89c2.01,0,3.65,1.63,3.65,3.65v13.89c0,2.01-1.63,3.65-3.65,3.65h-13.89c-2.01,0-3.65-1.63-3.65-3.65v-13.89c0-2.01,1.63-3.65,3.65-3.65Z"/>
      <rect class="cls-1" x="41.99" y="121.12" width="21.18" height="21.18" rx="3.65" ry="3.65"/>
      <path class="cls-1" d="m137.4,121.12h13.89c2.01,0,3.65,1.63,3.65,3.65v13.89c0,2.01-1.63,3.65-3.65,3.65h-13.89c-2.01,0-3.65-1.63-3.65-3.65v-13.89c0-2.01,1.63-3.65,3.65-3.65Z"/>
    </g>
  </g>
</svg>