<?xml version="1.0" encoding="UTF-8"?>
<svg id="Layer_1" data-name="Layer 1" xmlns="http://www.w3.org/2000/svg" viewBox="0 0 288 259.2">
  <defs>
    <style>
      .cls-1 {
        fill: #055a79;
        stroke-width: 0px;
      }
    </style>
  </defs>
  <rect class="cls-1" x="0" y="207.27" width="211.76" height="21.18" rx="3.45" ry="3.45"/>
  <path class="cls-1" d="m158.97,193.1h49.12c2.03,0,3.67-1.65,3.67-3.67V34.43c0-2.03-1.65-3.67-3.67-3.67h-49.12c-2.03,0-3.67,1.65-3.67,3.67v17.5h35.29v120h-14.12v-105.88h-21.18v123.38c0,2.03,1.65,3.67,3.67,3.67Z"/>
  <path class="cls-1" d="m77.65,108.37v81.44c0,1.85,1.5,3.34,3.34,3.34h49.78c1.85,0,3.34-1.5,3.34-3.34v-113.34c0-1.85-1.5-3.34-3.34-3.34h-49.78c-1.85,0-3.34,1.5-3.34,3.34v17.83h35.29v77.67h-14.12v-63.6h-21.18Z"/>
  <path class="cls-1" d="m35.3,171.98h-14.12v-21.23H0v38.67c0,2.06,1.67,3.73,3.73,3.73h49c2.06,0,3.73-1.67,3.73-3.73v-70.18c0-2.06-1.67-3.73-3.74-3.73H3.73c-2.06,0-3.73,1.67-3.73,3.73v17.44h35.3v35.29Z"/>
</svg>