<?xml version="1.0" encoding="UTF-8"?>
<svg id="Layer_1" data-name="Layer 1" xmlns="http://www.w3.org/2000/svg" viewBox="0 0 288 259.2">
  <defs>
    <style>
      .cls-1 {
        fill: #055a79;
        stroke-width: 0px;
      }
    </style>
  </defs>
  <polygon class="cls-1" points="123.53 212.52 123.53 154.31 102.36 154.31 102.36 212.44 82.19 192.27 67.22 207.25 102.36 242.54 123.53 242.54 158.24 207.76 143.27 192.79 123.53 212.52"/>
  <polygon class="cls-1" points="102.35 46.68 102.35 104.89 123.52 104.89 123.52 46.76 143.69 66.93 158.67 51.95 123.52 16.66 102.35 16.66 67.64 51.44 82.61 66.41 102.35 46.68"/>
  <polygon class="cls-1" points="191.1 84.34 176.13 99.31 195.86 119.05 30.1 119.06 50.27 98.89 35.29 83.92 0 119.06 0 140.24 34.78 174.94 49.76 159.97 30.02 140.24 195.78 140.22 175.61 160.39 190.59 175.37 225.88 140.22 225.88 119.05 191.1 84.34"/>
</svg>