<?xml version="1.0" encoding="UTF-8"?>
<svg id="Layer_1" data-name="Layer 1" xmlns="http://www.w3.org/2000/svg" viewBox="0 0 288 259.2">
  <defs>
    <style>
      .cls-1 {
        fill: #055a79;
        stroke-width: 0px;
      }
    </style>
  </defs>
  <path class="cls-1" d="m77.7,129.6c0,27.26,22.1,49.36,49.36,49.36s49.36-22.1,49.36-49.36-22.1-49.36-49.36-49.36-49.36,22.1-49.36,49.36Zm77.54,0c0,15.57-12.62,28.18-28.18,28.18s-28.18-12.62-28.18-28.18,12.62-28.18,28.18-28.18,28.18,12.62,28.18,28.18Z"/>
  <path class="cls-1" d="m116.47,45.6v20.42h21.17v-20.39c.05,0,.1.01.15.02v-21.34c-.05,0-.1,0-.15-.01V2.54h-21.17v21.77c-45.18,4.49-82.01,37.38-92.34,80.58h21.94c9.58-31.44,36.95-55.12,70.4-59.3Z"/>
  <path class="cls-1" d="m43.06,140.18h20.47v-21.17H0v21.17h21.77c4.49,45.18,37.38,82.01,80.58,92.34v-21.94c-31.44-9.58-55.12-36.96-59.29-70.4Z"/>
  <path class="cls-1" d="m137.64,213.6v-20.52h-21.17v63.58h21.17v-21.77c45.19-4.49,82.01-37.38,92.34-80.58h-21.94c-9.58,31.44-36.96,55.12-70.4,59.3Z"/>
  <path class="cls-1" d="m232.35,119.02c-4.48-45.13-37.31-81.92-80.43-92.3v21.95c31.37,9.62,54.98,36.96,59.14,70.35h-20.45v21.17h63.51v-21.17h-21.77Z"/>
</svg>