<?xml version="1.0" encoding="UTF-8"?>
<svg xmlns="http://www.w3.org/2000/svg" viewBox="0 0 288 259.2">
  <defs>
    <style>
      .cls-1 {
        fill: #055a79;
        stroke-width: 0px;
      }

      .cls-2 {
        fill: none;
        stroke: #bcbec0;
        stroke-miterlimit: 10;
        stroke-width: .5px;
      }
    </style>
  </defs>
  <g id="Layer_2" data-name="Layer 2">
    <g>
      <rect class="cls-2" x="88.26" y="2.54" width="254.12" height="254.12"/>
      <line class="cls-2" x1="95.32" y1="2.54" x2="95.32" y2="256.66"/>
      <line class="cls-2" x1="88.26" y1="2.54" x2="88.26" y2="256.66"/>
      <line class="cls-2" x1="102.38" y1="2.54" x2="102.38" y2="256.66"/>
      <line class="cls-2" x1="109.44" y1="2.54" x2="109.44" y2="256.66"/>
      <line class="cls-2" x1="116.5" y1="2.54" x2="116.5" y2="256.66"/>
      <line class="cls-2" x1="123.56" y1="2.54" x2="123.56" y2="256.66"/>
      <line class="cls-2" x1="130.62" y1="2.54" x2="130.62" y2="256.66"/>
      <line class="cls-2" x1="137.68" y1="2.54" x2="137.68" y2="256.66"/>
      <line class="cls-2" x1="144.73" y1="2.54" x2="144.73" y2="256.66"/>
      <line class="cls-2" x1="151.79" y1="2.54" x2="151.79" y2="256.66"/>
      <line class="cls-2" x1="158.85" y1="2.54" x2="158.85" y2="256.66"/>
      <line class="cls-2" x1="165.91" y1="2.54" x2="165.91" y2="256.66"/>
      <line class="cls-2" x1="180.03" y1="2.54" x2="180.03" y2="256.66"/>
      <line class="cls-2" x1="172.97" y1="2.54" x2="172.97" y2="256.66"/>
      <line class="cls-2" x1="194.15" y1="2.54" x2="194.15" y2="256.66"/>
      <line class="cls-2" x1="187.09" y1="2.54" x2="187.09" y2="256.66"/>
      <line class="cls-2" x1="208.26" y1="2.54" x2="208.26" y2="256.66"/>
      <line class="cls-2" x1="201.2" y1="2.54" x2="201.2" y2="256.66"/>
      <line class="cls-2" x1="222.38" y1="2.54" x2="222.38" y2="256.66"/>
      <line class="cls-2" x1="215.32" y1="2.54" x2="215.32" y2="256.66"/>
      <line class="cls-2" x1="236.5" y1="2.54" x2="236.5" y2="256.66"/>
      <line class="cls-2" x1="229.44" y1="2.54" x2="229.44" y2="256.66"/>
      <line class="cls-2" x1="250.62" y1="2.54" x2="250.62" y2="256.66"/>
      <line class="cls-2" x1="243.56" y1="2.54" x2="243.56" y2="256.66"/>
      <line class="cls-2" x1="264.73" y1="2.54" x2="264.73" y2="256.66"/>
      <line class="cls-2" x1="257.68" y1="2.54" x2="257.68" y2="256.66"/>
      <line class="cls-2" x1="278.85" y1="2.54" x2="278.85" y2="256.66"/>
      <line class="cls-2" x1="271.79" y1="2.54" x2="271.79" y2="256.66"/>
      <line class="cls-2" x1="285.91" y1="2.54" x2="285.91" y2="256.66"/>
      <circle class="cls-2" cx="215.32" cy="129.6" r="127.06"/>
      <circle class="cls-2" cx="215.32" cy="129.6" r="105.88"/>
      <circle class="cls-2" cx="215.32" cy="129.6" r="35.29"/>
      <line class="cls-2" x1="88.26" y1="256.66" x2="342.38" y2="2.54"/>
      <line class="cls-2" x1="88.26" y1="2.54" x2="342.38" y2="256.66"/>
      <line class="cls-2" x1="342.38" y1="9.6" x2="88.26" y2="9.6"/>
      <line class="cls-2" x1="342.38" y1="2.54" x2="88.26" y2="2.54"/>
      <line class="cls-2" x1="342.38" y1="16.66" x2="88.26" y2="16.66"/>
      <line class="cls-2" x1="342.38" y1="23.72" x2="88.26" y2="23.72"/>
      <line class="cls-2" x1="342.38" y1="30.78" x2="88.26" y2="30.78"/>
      <line class="cls-2" x1="342.38" y1="37.84" x2="88.26" y2="37.84"/>
      <line class="cls-2" x1="342.38" y1="44.89" x2="88.26" y2="44.89"/>
      <line class="cls-2" x1="342.38" y1="51.95" x2="88.26" y2="51.95"/>
      <line class="cls-2" x1="342.38" y1="59.01" x2="88.26" y2="59.01"/>
      <line class="cls-2" x1="342.38" y1="66.07" x2="88.26" y2="66.07"/>
      <line class="cls-2" x1="342.38" y1="73.13" x2="88.26" y2="73.13"/>
      <line class="cls-2" x1="342.38" y1="80.19" x2="88.26" y2="80.19"/>
      <line class="cls-2" x1="342.38" y1="94.31" x2="88.26" y2="94.31"/>
      <line class="cls-2" x1="342.38" y1="87.25" x2="88.26" y2="87.25"/>
      <line class="cls-2" x1="342.38" y1="108.42" x2="88.26" y2="108.42"/>
      <line class="cls-2" x1="342.38" y1="101.36" x2="88.26" y2="101.36"/>
      <line class="cls-2" x1="342.38" y1="122.54" x2="88.26" y2="122.54"/>
      <line class="cls-2" x1="342.38" y1="115.48" x2="88.26" y2="115.48"/>
      <line class="cls-2" x1="342.38" y1="136.66" x2="88.26" y2="136.66"/>
      <line class="cls-2" x1="342.38" y1="129.6" x2="88.26" y2="129.6"/>
      <line class="cls-2" x1="342.38" y1="150.78" x2="88.26" y2="150.78"/>
      <line class="cls-2" x1="342.38" y1="143.72" x2="88.26" y2="143.72"/>
      <line class="cls-2" x1="342.38" y1="164.89" x2="88.26" y2="164.89"/>
      <line class="cls-2" x1="342.38" y1="157.84" x2="88.26" y2="157.84"/>
      <line class="cls-2" x1="342.38" y1="179.01" x2="88.26" y2="179.01"/>
      <line class="cls-2" x1="342.38" y1="171.95" x2="88.26" y2="171.95"/>
      <line class="cls-2" x1="342.38" y1="193.13" x2="88.26" y2="193.13"/>
      <line class="cls-2" x1="342.38" y1="186.07" x2="88.26" y2="186.07"/>
      <line class="cls-2" x1="342.38" y1="207.25" x2="88.26" y2="207.25"/>
      <line class="cls-2" x1="342.38" y1="200.19" x2="88.26" y2="200.19"/>
      <line class="cls-2" x1="342.38" y1="221.36" x2="88.26" y2="221.36"/>
      <line class="cls-2" x1="342.38" y1="214.31" x2="88.26" y2="214.31"/>
      <line class="cls-2" x1="342.38" y1="235.48" x2="88.26" y2="235.48"/>
      <line class="cls-2" x1="342.38" y1="228.42" x2="88.26" y2="228.42"/>
      <line class="cls-2" x1="342.38" y1="249.6" x2="88.26" y2="249.6"/>
      <line class="cls-2" x1="342.38" y1="256.66" x2="88.26" y2="256.66"/>
      <line class="cls-2" x1="342.38" y1="242.54" x2="88.26" y2="242.54"/>
    </g>
  </g>
  <g id="Layer_1" data-name="Layer 1">
    <g>
      <path class="cls-1" d="m225.64,87.79v-21.18h-35.15v-14.51h-21.63V15.73h-21.18v36.37h-24.1V15.73h-21.18v36.37h-31.24V15.73h-21.18v36.37h-14.49v14.51H0v21.18h35.51v31.24H0v21.18h35.51v24.1H0v21.18h35.51v21.61h14.49v35.3h21.18v-35.3h31.24v35.3h21.18v-35.3h24.1v35.3h21.18v-35.3h21.63v-21.61h35.15v-21.18h-35.15v-24.1h35.15v-21.18h-35.15v-31.24h35.15Zm-56.65,97.8H57.01v-111.99h111.99v111.99Z"/>
      <rect class="cls-1" x="102.41" y="119.01" width="21.18" height="21.18" rx="3.65" ry="3.65"/>
    </g>
  </g>
</svg>